<svg height="512" viewBox="0 0 64 64" width="512" xmlns="http://www.w3.org/2000/svg"><g id="cloud-server-system-marketing-seo"><path d="m28 27a4 4 0 1 0 4 4 4 4 0 0 0 -4-4zm0 6a2 2 0 1 1 2-2 2 2 0 0 1 -2 2z"/><path d="m41 20a4 4 0 1 0 -4-4 4 4 0 0 0 4 4zm0-6a2 2 0 1 1 -2 2 2 2 0 0 1 2-2z"/><path d="m32.758 18.97.668.167-.355.591a1 1 0 0 0 .151 1.221l2.828 2.829a1 1 0 0 0 1.222.151l.591-.355.167.668a1 1 0 0 0 .97.758h4a1 1 0 0 0 .97-.758l.167-.668.591.355a1 1 0 0 0 1.222-.151l2.828-2.829a1 1 0 0 0 .151-1.221l-.355-.591.668-.167a1 1 0 0 0 .758-.97v-4a1 1 0 0 0 -.758-.97l-.668-.167.355-.591a1 1 0 0 0 -.151-1.221l-2.828-2.829a1 1 0 0 0 -1.222-.151l-.591.355-.167-.668a1 1 0 0 0 -.97-.758h-4a1 1 0 0 0 -.97.758l-.167.668-.591-.355a1 1 0 0 0 -1.222.151l-2.828 2.829a1 1 0 0 0 -.151 1.221l.355.591-.668.167a1 1 0 0 0 -.758.97v4a1 1 0 0 0 .758.97zm1.242-4.189 1.22-.3a1 1 0 0 0 .615-1.485l-.647-1.078 1.725-1.725 1.078.647a1 1 0 0 0 1.485-.615l.3-1.22h2.438l.3 1.22a1 1 0 0 0 1.485.615l1.078-.647 1.725 1.725-.647 1.078a1 1 0 0 0 .615 1.485l1.22.3v2.438l-1.22.3a1 1 0 0 0 -.615 1.485l.647 1.078-1.725 1.726-1.078-.648a1 1 0 0 0 -1.485.615l-.3 1.22h-2.433l-.3-1.22a1 1 0 0 0 -1.485-.615l-1.078.648-1.725-1.726.647-1.078a1 1 0 0 0 -.615-1.485l-1.22-.3z"/><path d="m59 45a3.01 3.01 0 0 0 -2.82 2h-3.18a1 1 0 0 1 -1-1v-7h2a8 8 0 0 0 0-16h-.88a13.994 13.994 0 0 0 -12.12-21 14.053 14.053 0 0 0 -13.41 10.04 11 11 0 0 0 -18.17 10.98 8 8 0 0 0 -1.79 15.62 10.1 10.1 0 0 0 .58 1.36h-.21a6 6 0 0 0 0 12h8v5a1 1 0 0 1 -1 1h-7.18a3 3 0 1 0 0 2h7.18a3.009 3.009 0 0 0 3-3v-5h13v3a3.009 3.009 0 0 0 3 3h18.18a3 3 0 1 0 0-2h-18.18a1 1 0 0 1 -1-1v-3h9a6 6 0 0 0 .6-11.97 4.312 4.312 0 0 0 .35-1.03h7.05v7a3.009 3.009 0 0 0 3 3h3.18a3 3 0 1 0 2.82-4zm-54 15a1 1 0 1 1 1-1 1 1 0 0 1 -1 1zm50-4a1 1 0 1 1 -1 1 1 1 0 0 1 1-1zm-9-10a4 4 0 0 1 -4 4h-34a4 4 0 0 1 0-8h2.01a1 1 0 0 0 .8-1.6 8.983 8.983 0 0 1 9.27-14.15.984.984 0 0 0 -.01 1.02l.36.59-.67.17a1 1 0 0 0 -.76.97v4a1 1 0 0 0 .76.97l.67.17-.36.59a1 1 0 0 0 .15 1.22l2.83 2.83a1 1 0 0 0 1.22.15l.59-.36.17.67a1 1 0 0 0 .97.76h4a1 1 0 0 0 .97-.76l.17-.67.59.36a1 1 0 0 0 1.22-.15l2.83-2.83a1 1 0 0 0 .15-1.22l-.36-.59.67-.17a1 1 0 0 0 .76-.97v-.49a6.531 6.531 0 0 1 4 5.99 3.068 3.068 0 0 1 -.47 1.17 6.909 6.909 0 0 0 -.47.99 1.035 1.035 0 0 0 .12.92 1.014 1.014 0 0 0 .82.42h1a4 4 0 0 1 4 4zm-23.16-18.01-.65-1.08 1.72-1.72 1.08.64a.989.989 0 0 0 .9.07 1.007 1.007 0 0 0 .59-.68l.3-1.22h2.44l.3 1.22a1.007 1.007 0 0 0 .59.68.989.989 0 0 0 .9-.07l1.08-.64 1.72 1.72-.65 1.08a1.019 1.019 0 0 0 -.06.9 1.007 1.007 0 0 0 .68.59l1.22.3v2.44l-1.22.3a1.007 1.007 0 0 0 -.68.59 1.019 1.019 0 0 0 .06.9l.65 1.08-1.72 1.72-1.08-.64a.989.989 0 0 0 -.9-.07 1.007 1.007 0 0 0 -.59.68l-.3 1.22h-2.44l-.3-1.22a1.007 1.007 0 0 0 -.59-.68.989.989 0 0 0 -.9.07l-1.08.64-1.72-1.72.65-1.08a1.019 1.019 0 0 0 .06-.9 1.007 1.007 0 0 0 -.68-.59l-1.22-.3v-2.44l1.22-.3a1.007 1.007 0 0 0 .68-.59 1.019 1.019 0 0 0 -.06-.9zm20.02 9.01a8.539 8.539 0 0 0 -5.86-6.62v-1.38a1 1 0 0 0 -.76-.97l-.67-.17.36-.59a1 1 0 0 0 -.15-1.22l-2.83-2.83a1.012 1.012 0 0 0 -1.22-.15l-.59.36-.17-.67a1 1 0 0 0 -.97-.76h-4a1 1 0 0 0 -.97.76l-.17.67-.59-.36a1.012 1.012 0 0 0 -1.22.15l-1.41 1.41a10.975 10.975 0 0 0 -14.64 10.37c0 .41.03.82.07 1.23a6 6 0 0 1 2.93-11.23h.84a1.013 1.013 0 0 0 .84-.45 1.034 1.034 0 0 0 .08-.95 8.747 8.747 0 0 1 -.76-3.6 9 9 0 0 1 16.33-5.22.991.991 0 0 0 1.05.39 1 1 0 0 0 .75-.83 11.992 11.992 0 0 1 23.87 1.66 11.818 11.818 0 0 1 -2.56 7.38 1 1 0 0 0 .79 1.62h2.77a6 6 0 0 1 0 12zm16.14 12a1 1 0 1 1 1-1 1 1 0 0 1 -1 1z"/><path d="m56 30h2v2h-2z"/><path d="m46 30h8v2h-8z"/><path d="m42 30h2v2h-2z"/><path d="m42 45h2v2h-2z"/><path d="m10 45h30v2h-30z"/><path d="m6 45h2v2h-2z"/></g></svg>