<svg width="25" height="25" viewBox="0 0 25 25" fill="none" xmlns="http://www.w3.org/2000/svg">
<g clip-path="url(#clip0)">
<path d="M24.5557 4.72799C24.2318 4.34509 23.7782 4.1112 23.2783 4.06945L5.67307 2.59944C5.17317 2.55769 4.68714 2.71311 4.30418 3.03698C3.92279 3.35959 3.68924 3.81091 3.64618 4.30832L3.29198 7.63135H1.87768C0.842331 7.63135 0 8.47368 0 9.50903V20.5296C0 21.5649 0.842331 22.4073 1.87768 22.4073H19.5443C20.5797 22.4073 21.422 21.5649 21.422 20.5296V18.7419L22.0489 18.7942C22.1018 18.7986 22.1544 18.8008 22.2065 18.8008C23.1717 18.8008 23.9946 18.0582 24.0763 17.0793L24.9934 6.09693C25.0351 5.59708 24.8796 5.11095 24.5557 4.72799ZM1.87768 8.60791H19.5443C20.0411 8.60791 20.4454 9.01216 20.4454 9.50903V10.5132H0.976559V9.50903C0.976559 9.01216 1.38081 8.60791 1.87768 8.60791ZM0.976559 11.4898H20.4454V13.5156H0.976559V11.4898ZM19.5443 21.4307H1.87768C1.38081 21.4307 0.976559 21.0265 0.976559 20.5296V14.4922H20.4454V20.5296C20.4454 21.0265 20.0411 21.4307 19.5443 21.4307ZM24.0202 6.01564L23.1031 16.998C23.0618 17.4931 22.6252 17.8625 22.1301 17.821L21.422 17.7619V9.50903C21.422 8.47368 20.5797 7.63135 19.5443 7.63135H4.2741L4.6178 4.40675C4.6182 4.40304 4.61854 4.39938 4.61883 4.39562C4.66019 3.90046 5.09651 3.53112 5.59182 3.57263L23.1971 5.04264C23.437 5.06266 23.6547 5.17492 23.8102 5.3587C23.9656 5.54249 24.0402 5.77574 24.0202 6.01564Z" fill="white"/>
<path d="M18.402 15.9438H13.7026C13.433 15.9438 13.2144 16.1625 13.2144 16.4321V19.498C13.2144 19.7677 13.433 19.9863 13.7026 19.9863H18.402C18.6716 19.9863 18.8902 19.7677 18.8902 19.498V16.4321C18.8902 16.1625 18.6716 15.9438 18.402 15.9438ZM17.9137 19.0097H14.1909V16.9204H17.9137V19.0097Z" fill="white"/>
</g>
<defs>
<clipPath id="clip0">
<rect width="25" height="25" fill="white"/>
</clipPath>
</defs>
</svg>
