<svg id="Capa_1" enable-background="new 0 0 607.76 607.76" height="512" viewBox="0 0 607.76 607.76" width="512" xmlns="http://www.w3.org/2000/svg"><g><g id="Page-1"><g id="_x30_01---Cogs"><path id="Shape" d="m131.684 354.481c0 95.104 77.097 172.201 172.202 172.201s172.202-77.097 172.202-172.201-77.097-172.202-172.202-172.202c-95.061.106-172.096 77.141-172.202 172.202zm172.201-151.943c83.916 0 151.943 68.027 151.943 151.943s-68.027 151.943-151.943 151.943-151.943-68.027-151.943-151.943c.095-83.876 68.067-151.848 151.943-151.943z"/><path id="Shape_1_" d="m303.885 455.776c55.944 0 101.295-45.351 101.295-101.295s-45.351-101.295-101.295-101.295-101.295 45.351-101.295 101.295c.061 55.918 45.377 101.233 101.295 101.295zm0-182.331c44.755 0 81.036 36.281 81.036 81.036s-36.281 81.036-81.036 81.036-81.036-36.281-81.036-81.036c.05-44.734 36.302-80.986 81.036-81.036z"/><path id="Shape_2_" d="m16.602 182.755 14.495 2.37c2.786 10.023 6.805 19.662 11.963 28.697l-8.549 11.852c-5.068 6.915-4.903 16.362.405 23.095 2.907 3.555 6.078 7.01 9.694 10.676 3.404 3.292 6.817 6.382 10.676 9.643 6.664 5.18 15.957 5.309 22.761.314l11.973-8.63c6.505 3.6 13.315 6.62 20.35 9.025-4.973 11.227-8.946 22.87-11.872 34.795l-25.516 4.184c-11.123 1.766-19.724 10.698-21.069 21.88-1.702 15.882-1.702 31.899 0 47.781 1.391 11.116 9.956 19.979 21.019 21.748l25.526 4.183c5.12 21.183 13.525 41.434 24.908 60.017l-14.982 20.958c-6.691 9.128-6.513 21.587.436 30.52 5.043 6.143 10.395 12.025 16.035 17.625 5.176 5.176 10.737 10.241 17.838 16.207 8.847 6.841 21.156 6.99 30.166.365l21.1-15.103c18.583 11.384 38.834 19.788 60.017 24.908l4.184 25.516c1.766 11.123 10.698 19.724 21.88 21.069 15.872 1.695 31.879 1.695 47.75 0 11.139-1.379 20.021-9.963 21.778-21.049l4.184-25.526c21.183-5.12 41.434-13.525 60.017-24.908l21.069 15.083c9.158 6.681 21.65 6.428 30.53-.618 6.767-5.693 12.328-10.758 17.504-15.934 5.703-5.666 11.113-11.619 16.207-17.838 6.808-8.858 6.956-21.145.365-30.166l-15.083-21.11c11.384-18.583 19.788-38.834 24.908-60.017l25.516-4.183c11.116-1.779 19.711-10.704 21.069-21.88 1.685-15.825 1.685-31.784 0-47.609v-.101c-1.379-11.139-9.963-20.021-21.049-21.778l-25.526-4.183c-2.94-11.94-6.93-23.597-11.922-34.835 7.035-2.406 13.845-5.426 20.35-9.025l12.064 8.62c6.955 5.031 16.419 4.778 23.095-.618 3.505-2.978 6.918-6.078 10.545-9.582 3.343-3.444 6.564-6.898 9.643-10.676 5.104-6.665 5.215-15.894.273-22.68l-8.63-11.963c5.157-9.035 9.175-18.674 11.963-28.697l14.698-2.411c8.313-1.474 14.675-8.226 15.65-16.612.436-4.67.75-9.329.75-14.181s-.314-9.542-.76-14.303c-.923-8.47-7.422-15.264-15.843-16.562l-14.495-2.37c-2.786-10.023-6.805-19.662-11.963-28.697l8.63-12.095c4.993-6.904 4.786-16.286-.506-22.964-2.924-3.599-6.132-7.148-9.623-10.646-3.444-3.343-6.898-6.564-10.676-9.643-6.667-5.165-15.949-5.289-22.751-.304l-12.003 8.59c-9.05-5.127-18.69-9.134-28.707-11.933l-2.36-14.445c-1.3-8.481-8.159-15.016-16.693-15.903-9.484-.881-19.03-.881-28.515 0-8.47.923-15.264 7.422-16.562 15.843l-2.34 14.505c-10.009 2.787-19.642 6.781-28.687 11.892l-12.024-8.549c-6.899-5.01-16.292-4.803-22.964.506-3.555 2.907-7.01 6.078-10.565 9.583s-6.635 6.969-9.664 10.656c-5.233 6.684-5.398 16.028-.405 22.893l8.63 11.963c-3.075 5.39-5.747 11-7.992 16.785-3.345-2.311-7.206-3.765-11.244-4.234-15.871-1.712-31.88-1.712-47.75 0-4.005.463-7.833 1.911-11.142 4.214-2.238-5.783-4.906-11.39-7.982-16.774l8.64-12.034c4.993-6.904 4.786-16.286-.506-22.964-2.924-3.599-6.132-7.148-9.623-10.646-3.444-3.343-6.898-6.564-10.676-9.643-6.663-5.176-15.952-5.3-22.751-.304l-12.003 8.59c-9.05-5.127-18.689-9.134-28.707-11.933l-2.36-14.445c-1.3-8.481-8.159-15.016-16.693-15.903-9.484-.881-19.03-.881-28.515 0-8.47.923-15.264 7.422-16.562 15.843l-2.34 14.505c-10.009 2.787-19.642 6.781-28.687 11.892l-12.024-8.549c-6.899-5.01-16.292-4.803-22.964.506-3.555 2.907-7.01 6.078-10.565 9.583s-6.635 6.969-9.664 10.656c-5.233 6.684-5.398 16.028-.405 22.893l8.63 11.963c-5.146 9.026-9.154 18.655-11.933 28.666l-14.445 2.36c-8.481 1.3-15.016 8.159-15.903 16.693-.432 4.639-.746 9.298-.746 14.181 0 4.882.314 9.542.76 14.333 1.047 8.406 7.488 15.128 15.842 16.531zm350.704-99.188-12.034-16.693c2.32-2.755 4.822-5.49 7.324-7.992 2.775-2.684 5.541-5.298 8.215-7.546l16.724 11.953c3.369 2.411 7.866 2.527 11.355.294 10.67-6.822 22.459-11.712 34.825-14.445 4.043-.898 7.132-4.168 7.8-8.256l3.292-20.127c7.334-.633 14.708-.633 22.042 0l3.292 20.127c.668 4.088 3.757 7.357 7.8 8.256 12.366 2.733 24.155 7.623 34.825 14.445 3.489 2.233 7.986 2.117 11.355-.294l16.714-11.953c2.786 2.35 5.49 4.903 8.104 7.435 2.613 2.532 5.156 5.389 7.435 8.104l-12.024 16.693c-2.444 3.389-2.557 7.93-.284 11.436 6.882 10.629 11.799 22.407 14.516 34.775.898 4.043 4.168 7.132 8.256 7.8l20.127 3.292c.324 3.616.547 7.232.547 11.021 0 3.788-.233 7.465-.547 11.021l-20.127 3.292c-4.088.668-7.357 3.757-8.256 7.8-2.717 12.367-7.634 24.146-14.516 34.775-2.273 3.506-2.16 8.047.284 11.436l12.034 16.683c-2.35 2.786-4.893 5.48-7.324 8.002-2.806 2.725-5.622 5.277-8.225 7.536l-16.683-12.024c-3.384-2.443-7.921-2.559-11.426-.294-7.593 4.899-15.788 8.794-24.382 11.588-1.327-2.38-2.553-4.801-3.981-7.091l15.083-21.069c1.21-1.717 2.2-3.578 2.948-5.541 21.662-15.03 34.551-39.75 34.471-66.115 0-44.755-36.281-81.036-81.036-81.036s-81.036 36.281-81.036 81.036c0 1.246.213 2.482.263 3.728-6.97-2.551-14.07-4.728-21.272-6.523l-2.543-15.529c.876-1.118 1.505-2.409 1.844-3.788 2.717-12.367 7.634-24.146 14.516-34.775 2.269-3.508 2.152-8.05-.295-11.437zm29.284 81.097c-.968-4.191-1.484-8.473-1.54-12.773 0-33.566 27.211-60.777 60.777-60.777s60.777 27.211 60.777 60.777c.047 15.741-6.073 30.875-17.048 42.159-.223-.314-.395-.648-.628-.952-5.003-6.177-10.357-12.062-16.035-17.625-5.663-5.706-11.617-11.116-17.838-16.207-8.842-6.851-21.156-7.004-30.166-.375l-21.1 15.113c-5.57-3.424-11.364-6.473-17.199-9.34zm-114.463-41.997c14.43-1.56 28.985-1.56 43.415 0 2.127.338 3.777 2.037 4.052 4.173l5.298 32.283c.676 4.14 3.834 7.435 7.942 8.286 23.441 4.856 45.748 14.112 65.74 27.279 3.5 2.297 8.053 2.205 11.456-.233l26.681-19.114c1.662-1.322 3.993-1.405 5.743-.203 5.648 4.643 11.057 9.569 16.207 14.759 5.124 5.021 9.956 10.331 14.475 15.903 1.241 1.784 1.179 4.167-.152 5.885l-19.054 26.651c-2.438 3.404-2.53 7.956-.233 11.456 13.17 19.99 22.427 42.298 27.279 65.74.851 4.107 4.146 7.265 8.286 7.942l32.283 5.298c2.133.281 3.829 1.928 4.173 4.052 1.533 14.401 1.533 28.923 0 43.324-.402 2.101-2.08 3.722-4.194 4.052l-32.273 5.298c-4.14.676-7.435 3.834-8.286 7.942-4.852 23.442-14.109 45.75-27.279 65.74-2.297 3.5-2.205 8.053.233 11.456l19.175 26.793c1.237 1.662 1.289 3.924.132 5.642-4.611 5.612-9.503 10.988-14.657 16.106-4.761 4.761-9.917 9.441-15.893 14.485-1.777 1.354-4.247 1.329-5.997-.061l-26.651-19.074c-3.404-2.438-7.956-2.53-11.456-.233-19.99 13.17-42.298 22.427-65.74 27.279-4.107.851-7.265 4.146-7.942 8.286l-5.298 32.283c-.261 2.104-1.863 3.793-3.951 4.163-14.43 1.56-28.985 1.56-43.415 0-2.13-.339-3.781-2.043-4.052-4.183l-5.298-32.273c-.676-4.14-3.834-7.435-7.941-8.286-23.442-4.852-45.75-14.109-65.74-27.279-3.5-2.297-8.053-2.205-11.456.233l-26.681 19.094c-1.619 1.294-3.88 1.42-5.632.314-6.311-5.318-11.467-9.998-16.207-14.759-5.09-5.053-9.925-10.357-14.485-15.893-1.319-1.789-1.294-4.235.061-5.997l19.043-26.651c2.438-3.404 2.53-7.956.233-11.456-13.17-19.99-22.427-42.298-27.279-65.74-.851-4.107-4.146-7.265-8.286-7.942l-32.283-5.298c-2.072-.328-3.727-1.899-4.163-3.951-1.546-14.43-1.546-28.985 0-43.415.339-2.13 2.043-3.781 4.183-4.052l32.273-5.298c4.14-.676 7.435-3.834 8.286-7.942 4.852-23.442 14.109-45.75 27.279-65.74 2.297-3.5 2.205-8.053-.233-11.456l-19.094-26.681c-1.296-1.674-1.381-3.988-.213-5.754 4.574-5.645 9.468-11.022 14.657-16.106 5.054-5.093 10.362-9.928 15.903-14.485 1.78-1.335 4.234-1.31 5.987.061l26.651 19.064c3.404 2.438 7.956 2.53 11.456.233 19.992-13.167 42.3-22.423 65.74-27.279 4.107-.851 7.265-4.146 7.941-8.286l5.298-32.293c.271-2.095 1.872-3.774 3.953-4.142zm-173.367 70.532c-.213.263-.355.567-.557.841-20.666-20.841-23.601-53.429-6.991-77.626s48.074-33.174 74.951-21.381 41.577 41.024 35.017 69.632c-5.835 2.867-11.598 5.916-17.22 9.339l-21.069-15.083c-9.099-6.663-21.521-6.452-30.389.517-6.107 5.012-11.956 10.33-17.524 15.934-5.744 5.625-11.159 11.577-16.218 17.827zm-87.954-52.329 20.127-3.292c4.088-.668 7.357-3.757 8.256-7.8 2.717-12.367 7.634-24.146 14.516-34.775 2.273-3.506 2.16-8.047-.284-11.436l-12.034-16.693c2.32-2.755 4.822-5.49 7.324-7.992 2.775-2.684 5.541-5.298 8.215-7.546l16.724 11.953c3.369 2.411 7.866 2.527 11.355.294 10.67-6.822 22.459-11.712 34.825-14.445 4.043-.898 7.132-4.168 7.8-8.256l3.292-20.127c7.334-.633 14.708-.633 22.042 0l3.292 20.127c.668 4.088 3.757 7.357 7.8 8.256 12.366 2.733 24.155 7.623 34.825 14.445 3.489 2.233 7.986 2.117 11.355-.294l16.714-11.953c2.786 2.35 5.49 4.903 8.104 7.435 2.613 2.532 5.156 5.389 7.435 8.104l-12.024 16.693c-2.444 3.389-2.557 7.93-.284 11.436 6.882 10.629 11.799 22.407 14.516 34.775.339 1.379.967 2.671 1.844 3.788l-2.543 15.529c-7.201 1.795-14.302 3.973-21.272 6.523 0-1.246.263-2.482.263-3.728 0-44.758-36.283-81.041-81.041-81.041s-81.041 36.283-81.041 81.041c-.065 26.344 12.808 51.04 34.44 66.075.748 1.951 1.735 3.802 2.938 5.51l15.103 21.1c-1.428 2.33-2.654 4.751-3.981 7.091-8.584-2.783-16.773-6.664-24.361-11.548-3.505-2.265-8.042-2.149-11.426.294l-16.673 12.014c-2.786-2.401-5.49-4.862-8.012-7.303-2.684-2.775-5.298-5.541-7.546-8.215l12.034-16.693c2.444-3.389 2.557-7.93.284-11.436-6.882-10.629-11.799-22.407-14.516-34.775-.898-4.043-4.168-7.132-8.256-7.8l-20.127-3.292c-.324-3.616-.547-7.232-.547-11.021-.002-3.79.231-7.457.545-11.022z"/></g></g></g></svg>