<svg width="25" height="25" viewBox="0 0 25 25" fill="none" xmlns="http://www.w3.org/2000/svg">
<g clip-path="url(#clip0)">
<path d="M20.3124 25H4.68742C3.252 25 2.08325 23.8312 2.08325 22.3958V2.60417C2.08325 1.16875 3.252 0 4.68742 0H20.3124C21.7478 0 22.9166 1.16875 22.9166 2.60417V22.3958C22.9166 23.8312 21.7478 25 20.3124 25ZM4.68742 1.04167C3.82596 1.04167 3.12492 1.74271 3.12492 2.60417V22.3958C3.12492 23.2573 3.82596 23.9583 4.68742 23.9583H20.3124C21.1739 23.9583 21.8749 23.2573 21.8749 22.3958V2.60417C21.8749 1.74271 21.1739 1.04167 20.3124 1.04167H4.68742Z" fill="white"/>
<path d="M19.2709 12.5H17.1876C16.9001 12.5 16.6667 12.2667 16.6667 11.9792C16.6667 11.6917 16.9001 11.4584 17.1876 11.4584H19.2709C19.5584 11.4584 19.7917 11.6917 19.7917 11.9792C19.7917 12.2667 19.5584 12.5 19.2709 12.5Z" fill="white"/>
<path d="M19.2709 9.37504H17.1876C16.9001 9.37504 16.6667 9.14171 16.6667 8.85421C16.6667 8.56671 16.9001 8.33337 17.1876 8.33337H19.2709C19.5584 8.33337 19.7917 8.56671 19.7917 8.85421C19.7917 9.14171 19.5584 9.37504 19.2709 9.37504Z" fill="white"/>
<path d="M19.2709 15.625H17.1876C16.9001 15.625 16.6667 15.3917 16.6667 15.1042C16.6667 14.8167 16.9001 14.5834 17.1876 14.5834H19.2709C19.5584 14.5834 19.7917 14.8167 19.7917 15.1042C19.7917 15.3917 19.5584 15.625 19.2709 15.625Z" fill="white"/>
<path d="M19.2709 18.75H17.1876C16.9001 18.75 16.6667 18.5167 16.6667 18.2292C16.6667 17.9417 16.9001 17.7084 17.1876 17.7084H19.2709C19.5584 17.7084 19.7917 17.9417 19.7917 18.2292C19.7917 18.5167 19.5584 18.75 19.2709 18.75Z" fill="white"/>
<path d="M19.2708 21.875H5.72909C5.44159 21.875 5.20825 21.6417 5.20825 21.3542C5.20825 21.0667 5.44159 20.8334 5.72909 20.8334H19.2708C19.5583 20.8334 19.7916 21.0667 19.7916 21.3542C19.7916 21.6417 19.5583 21.875 19.2708 21.875Z" fill="white"/>
<path d="M10.4166 18.75C7.54471 18.75 5.20825 16.4136 5.20825 13.5417C5.20825 10.6698 7.54471 8.33337 10.4166 8.33337C13.2885 8.33337 15.6249 10.6698 15.6249 13.5417C15.6249 16.4136 13.2885 18.75 10.4166 18.75ZM10.4166 9.37504C8.11867 9.37504 6.24992 11.2438 6.24992 13.5417C6.24992 15.8396 8.11867 17.7084 10.4166 17.7084C12.7145 17.7084 14.5833 15.8396 14.5833 13.5417C14.5833 11.2438 12.7145 9.37504 10.4166 9.37504Z" fill="white"/>
<path d="M7.10215 17.3771C6.96881 17.3771 6.83548 17.3261 6.7334 17.225C6.53027 17.0219 6.53027 16.6917 6.7334 16.4886L9.8959 13.3261V8.85421C9.8959 8.56671 10.1292 8.33337 10.4167 8.33337C10.7042 8.33337 10.9376 8.56671 10.9376 8.85421V13.5417C10.9376 13.6802 10.8824 13.8125 10.7855 13.9105L7.4709 17.225C7.36881 17.3261 7.23548 17.3771 7.10215 17.3771Z" fill="white"/>
</g>
<defs>
<clipPath id="clip0">
<rect width="25" height="25" fill="white"/>
</clipPath>
</defs>
</svg>
