<svg width="29" height="29" viewBox="0 0 29 29" fill="none" xmlns="http://www.w3.org/2000/svg">
<g clip-path="url(#clip0)">
<path d="M23.3094 19.0018C23.0726 19.0018 22.8807 19.1938 22.8807 19.4306V25.2792L20.9269 25.976C20.7039 26.0555 20.5876 26.3008 20.6671 26.5238C20.7297 26.6993 20.8948 26.8086 21.071 26.8086C21.1188 26.8086 21.1674 26.8006 21.2151 26.7836L23.4535 25.9852C23.6242 25.9243 23.7382 25.7627 23.7382 25.5814V19.4306C23.7382 19.1938 23.5462 19.0018 23.3094 19.0018Z" fill="white"/>
<path d="M4.87311 4.17224C4.63629 4.17224 4.44434 4.3642 4.44434 4.60101V5.73723C4.44434 5.97404 4.63624 6.166 4.87311 6.166C5.10992 6.166 5.30188 5.97404 5.30188 5.73723V4.60101C5.30188 4.36425 5.10992 4.17224 4.87311 4.17224Z" fill="white"/>
<path d="M4.87311 7.23132C4.63629 7.23132 4.44434 7.42328 4.44434 7.66009V8.79631C4.44434 9.03313 4.63624 9.22508 4.87311 9.22508C5.10992 9.22508 5.30188 9.03313 5.30188 8.79631V7.66009C5.30188 7.42334 5.10992 7.23132 4.87311 7.23132Z" fill="white"/>
<path d="M6.97074 6.2699H5.83453C5.59772 6.2699 5.40576 6.46185 5.40576 6.69867C5.40576 6.93548 5.59772 7.12744 5.83453 7.12744H6.97074C7.20756 7.12744 7.39951 6.93548 7.39951 6.69867C7.39951 6.46191 7.20756 6.2699 6.97074 6.2699Z" fill="white"/>
<path d="M3.91166 6.2699H2.77545C2.53864 6.2699 2.34668 6.46185 2.34668 6.69867C2.34668 6.93548 2.53864 7.12744 2.77545 7.12744H3.91166C4.14848 7.12744 4.34043 6.93548 4.34043 6.69867C4.34043 6.46191 4.14848 6.2699 3.91166 6.2699Z" fill="white"/>
<path d="M26.5333 16.5375L23.6185 13.5156C23.6185 13.5156 23.6185 13.5156 23.6184 13.5156L23.6179 13.515C23.6176 13.5146 23.6172 13.5144 23.6168 13.5141C23.5721 13.4679 23.5167 13.4314 23.4534 13.4088L20.9337 12.5102C20.7107 12.4305 20.4654 12.5469 20.3859 12.7699C20.3063 12.9929 20.4227 13.2382 20.6457 13.3178L22.0329 13.8126L14.9261 16.3472L7.81926 13.8126L9.24678 13.3034C9.46977 13.2239 9.58611 12.9786 9.50653 12.7556C9.42701 12.5326 9.1817 12.4163 8.9587 12.4959L6.39888 13.4088C6.33562 13.4314 6.28022 13.468 6.23542 13.5141C6.23508 13.5144 6.23468 13.5146 6.23434 13.515L6.23383 13.5156H6.23378L3.31893 16.5375C3.21777 16.6423 3.17682 16.7913 3.21007 16.9331C3.24331 17.0749 3.34629 17.1901 3.48347 17.239L8.6158 19.0695C8.66344 19.0865 8.71203 19.0946 8.75984 19.0946C8.93605 19.0946 9.10116 18.9851 9.16369 18.8098C9.24327 18.5868 9.12693 18.3415 8.90393 18.2619L4.39743 16.6546L6.65949 14.3095L14.1562 16.9833L11.8941 19.3284L10.4397 18.8097C10.2166 18.73 9.97138 18.8464 9.89186 19.0694C9.81228 19.2924 9.92862 19.5377 10.1516 19.6172L11.8666 20.2289C12.0254 20.2856 12.2024 20.2439 12.3193 20.1228L14.9261 17.4201L17.533 20.1228C17.6152 20.208 17.7273 20.2538 17.8417 20.2538C17.8899 20.2538 17.9386 20.2457 17.9856 20.2288L26.3688 17.2389C26.5059 17.1901 26.6089 17.0748 26.6422 16.933C26.6755 16.7913 26.6345 16.6423 26.5333 16.5375ZM17.9581 19.3283L15.6961 16.9832L23.1927 14.3094L25.4548 16.6545L17.9581 19.3283Z" fill="white"/>
<path d="M19.8226 26.8248C19.7431 26.6018 19.4978 26.4855 19.2748 26.565L14.9258 28.1161L6.97131 25.2791V19.4306C6.97131 19.1938 6.77936 19.0018 6.54254 19.0018C6.30573 19.0018 6.11377 19.1938 6.11377 19.4306V25.5814C6.11377 25.7627 6.22779 25.9243 6.39845 25.9852L14.7817 28.9752C14.8283 28.9918 14.877 29.0001 14.9257 29.0001C14.9745 29.0001 15.0232 28.9918 15.0698 28.9752L19.5629 27.3727C19.7859 27.2931 19.9022 27.0478 19.8226 26.8248Z" fill="white"/>
<path d="M14.9258 18.9789C14.689 18.9789 14.4971 19.1708 14.4971 19.4077V26.6963C14.4971 26.9331 14.689 27.1251 14.9258 27.1251C15.1626 27.1251 15.3546 26.9331 15.3546 26.6963V19.4077C15.3546 19.1708 15.1626 18.9789 14.9258 18.9789Z" fill="white"/>
<path d="M24.1056 4.86437L23.2926 4.69954C22.659 4.57102 22.1665 4.07865 22.038 3.44495L21.8732 2.63198C21.7978 2.26025 21.4802 2.00061 21.1009 2.00061C20.7216 2.00061 20.404 2.26025 20.3286 2.63204L20.1638 3.44495C20.0353 4.07859 19.5429 4.57108 18.9092 4.69954L18.0962 4.86437C17.7244 4.9397 17.4648 5.25728 17.4648 5.6366C17.4648 6.01598 17.7244 6.33357 18.0962 6.4089L18.9092 6.57373C19.5428 6.70219 20.0353 7.19462 20.1638 7.82832L20.3286 8.64128C20.404 9.01301 20.7216 9.27266 21.1009 9.27266C21.4802 9.27266 21.7978 9.01302 21.8732 8.64123L22.038 7.82832C22.1665 7.19468 22.6589 6.70219 23.2926 6.57373L24.1056 6.4089C24.4774 6.33357 24.737 6.01598 24.737 5.6366C24.737 5.25728 24.4773 4.93975 24.1056 4.86437ZM23.1222 5.73329C22.1501 5.93034 21.3946 6.68582 21.1975 7.65794L21.1009 8.13463L21.0043 7.65794C20.8072 6.68582 20.0517 5.9304 19.0796 5.73329L18.6029 5.63666L19.0796 5.54003C20.0517 5.34292 20.8072 4.58745 21.0043 3.61538L21.1009 3.13869L21.1975 3.61538C21.3946 4.58739 22.1501 5.34292 23.1222 5.54003L23.5989 5.63666L23.1222 5.73329Z" fill="white"/>
<path d="M15.5003 3.6727L14.4571 3.4612C13.596 3.28664 12.9267 2.61737 12.7521 1.75626L12.5406 0.71305C12.4554 0.293172 12.0969 0 11.6686 0C11.2403 0 10.8817 0.293173 10.7966 0.712937L10.5851 1.75615C10.4105 2.61726 9.74127 3.28652 8.88017 3.46109L7.83696 3.67259C7.4172 3.75772 7.12402 4.11625 7.12402 4.54457C7.12402 4.97289 7.4172 5.33148 7.83696 5.41661L8.88017 5.62811C9.74127 5.80267 10.4105 6.47194 10.5851 7.33305L10.7966 8.37626C10.8817 8.79602 11.2403 9.0892 11.6686 9.0892C12.0969 9.0892 12.4555 8.79602 12.5406 8.37626L12.7521 7.33305C12.9267 6.47194 13.5959 5.80267 14.457 5.62811L15.5002 5.41661C15.92 5.33148 16.2131 4.97294 16.2131 4.54463C16.2131 4.11631 15.92 3.75777 15.5003 3.6727ZM15.3298 4.57618L14.2866 4.78767C13.087 5.03089 12.1548 5.96314 11.9116 7.16262L11.7001 8.20583C11.6963 8.22463 11.6949 8.23166 11.6686 8.23166C11.6422 8.23166 11.6408 8.22463 11.637 8.20583L11.4255 7.16262C11.1823 5.96308 10.2501 5.03083 9.0506 4.78767L8.00739 4.57618C7.98859 4.57238 7.98156 4.57096 7.98156 4.54463C7.98156 4.51829 7.98864 4.51682 8.00739 4.51308L9.0506 4.30158C10.2501 4.05837 11.1824 3.12612 11.4255 1.92663L11.637 0.883426C11.6408 0.864621 11.6422 0.857597 11.6686 0.857597C11.6949 0.857597 11.6964 0.864621 11.7001 0.883426L11.9116 1.92663C12.1548 3.12617 13.0871 4.05842 14.2866 4.30158L15.3298 4.51308C15.3486 4.51687 15.3556 4.51829 15.3556 4.54463C15.3556 4.57096 15.3486 4.57244 15.3298 4.57618Z" fill="white"/>
<path d="M11.9585 13.5869C10.8226 10.7912 8.27965 8.31344 8.17203 8.20933C8.00177 8.04479 7.73046 8.04938 7.56586 8.21958C7.40126 8.38979 7.40579 8.66116 7.57594 8.82581C7.60104 8.85011 10.0975 11.2845 11.164 13.9097C11.2317 14.0762 11.3921 14.1772 11.5614 14.1772C11.6152 14.1772 11.6698 14.167 11.7226 14.1456C11.942 14.0564 12.0476 13.8062 11.9585 13.5869Z" fill="white"/>
<path d="M13.5049 8.26025C13.2681 8.26025 13.0762 8.45221 13.0762 8.68902V12.6335C13.0762 12.8703 13.2681 13.0623 13.5049 13.0623C13.7418 13.0623 13.9337 12.8703 13.9337 12.6335V8.68902C13.9337 8.45221 13.7417 8.26025 13.5049 8.26025Z" fill="white"/>
<path d="M20.9201 9.77087C20.7361 9.62168 20.4661 9.64977 20.317 9.83374C19.2519 11.1468 18.4694 12.4095 17.9911 13.5868C17.902 13.8062 18.0077 14.0563 18.227 14.1454C18.2799 14.1668 18.3345 14.177 18.3882 14.177C18.5575 14.177 18.7179 14.0761 18.7856 13.9095C19.3416 12.5409 20.2874 11.2314 20.9829 10.3739C21.1321 10.1901 21.104 9.92006 20.9201 9.77087Z" fill="white"/>
<path d="M17.1902 6.89182C16.9553 6.86123 16.7403 7.02696 16.7098 7.2618L16.0192 12.5783C15.9888 12.813 16.1544 13.0282 16.3892 13.0586C16.408 13.061 16.4265 13.0623 16.4449 13.0623C16.6572 13.0623 16.8416 12.9047 16.8696 12.6887L17.5601 7.37219C17.5907 7.13741 17.425 6.92229 17.1902 6.89182Z" fill="white"/>
</g>
<defs>
<clipPath id="clip0">
<rect width="29" height="29" fill="white"/>
</clipPath>
</defs>
</svg>
