<svg height="512" viewBox="0 0 480.11987 480" width="512" xmlns="http://www.w3.org/2000/svg"><path d="m304 248.058594h113.136719c4.027343 15.605468 19.03125 25.777344 35.015625 23.746094s27.96875-15.628907 27.96875-31.746094c0-16.113282-11.984375-29.714844-27.96875-31.742188-15.984375-2.03125-30.988282 8.140625-35.015625 23.742188h-113.136719v-80h40c13.253906 0 24-10.742188 24-24v-72c0-4.417969 3.582031-8 8-8h41.136719c4.027343 15.605468 19.03125 25.777344 35.015625 23.746094s27.96875-15.628907 27.96875-31.746094c0-16.113282-11.984375-29.714844-27.96875-31.742188-15.984375-2.03125-30.988282 8.140625-35.015625 23.742188h-41.136719c-13.253906 0-24 10.746094-24 24v72c0 4.417968-3.582031 8-8 8h-40v-72c0-36.488282-65.34375-64.0000002-152-64.0000002s-152 27.5117182-152 64.0000002v352c0 36.488281 65.34375 64 152 64s152-27.511719 152-64v-40h40c4.417969 0 8 3.582031 8 8v48c0 13.257812 10.746094 24 24 24h41.136719c4.027343 15.605468 19.03125 25.777344 35.015625 23.746094s27.96875-15.628907 27.96875-31.746094c0-16.113282-11.984375-29.714844-27.96875-31.742188-15.984375-2.03125-30.988282 8.140625-35.015625 23.742188h-41.136719c-4.417969 0-8-3.582032-8-8v-48c0-13.253906-10.746094-24-24-24h-40zm144-24c8.835938 0 16 7.164062 16 16 0 8.839844-7.164062 16-16 16s-16-7.160156-16-16c0-8.835938 7.164062-16 16-16zm0-200c8.835938 0 16 7.164062 16 16 0 8.839844-7.164062 16-16 16s-16-7.160156-16-16c0-8.835938 7.164062-16 16-16zm0 408c8.835938 0 16 7.164062 16 16 0 8.839844-7.164062 16-16 16s-16-7.160156-16-16c0-8.835938 7.164062-16 16-16zm-296-416c80.152344 0 136 25.296875 136 48 0 22.707031-55.847656 48-136 48s-136-25.292969-136-48c0-22.703125 55.847656-48 136-48zm-136 77.394531c24.457031 20.878906 74.863281 34.605469 136 34.605469s111.542969-13.726563 136-34.605469v90.605469c0 22.707031-55.847656 48-136 48s-136-25.292969-136-48zm136 370.605469c-80.152344 0-136-25.292969-136-48v-90.605469c24.457031 20.878906 74.863281 34.605469 136 34.605469s111.542969-13.726563 136-34.605469v90.605469c0 22.707031-55.847656 48-136 48zm0-120c-80.152344 0-136-25.292969-136-48v-82.605469c24.457031 20.878906 74.863281 34.605469 136 34.605469s111.542969-13.726563 136-34.605469v82.605469c0 22.707031-55.847656 48-136 48zm0 0"/><path d="m440 32.058594h16v16h-16zm0 0"/><path d="m440 232.058594h16v16h-16zm0 0"/><path d="m440 440.058594h16v16h-16zm0 0"/></svg>