<svg id="Capa_1" enable-background="new 0 0 512 512" height="512" viewBox="0 0 512 512" width="512" xmlns="http://www.w3.org/2000/svg"><g><g><g><path d="m318.234 326.401c0-34.316-27.918-62.234-62.234-62.234-26.724 0-50.422 17-58.972 42.302-1.326 3.924.78 8.18 4.705 9.506 3.924 1.327 8.181-.781 9.506-4.705 6.488-19.203 24.477-32.104 44.761-32.104 26.045 0 47.234 21.189 47.234 47.234s-21.189 47.235-47.234 47.235c-20.285 0-38.272-12.901-44.761-32.104-1.325-3.924-5.581-6.032-9.506-4.705-3.925 1.326-6.031 5.582-4.705 9.506 8.549 25.302 32.248 42.302 58.972 42.302 34.316.001 62.234-27.917 62.234-62.233z"/><path d="m480.234 448.302h-190.484c.428-1.629.656-3.338.656-5.1 0-2.187 1.379-4.122 3.43-4.814 4.972-1.679 9.874-3.711 14.571-6.039 1.934-.959 4.26-.586 5.809.925l.047.047c7.856 7.856 20.571 7.854 28.425 0l20.231-20.231c7.857-7.856 7.856-20.572 0-28.426-.011-.011-.022-.022-.034-.034-1.521-1.547-1.898-3.88-.937-5.82 2.33-4.705 4.362-9.607 6.038-14.571.693-2.052 2.628-3.431 4.814-3.431 11.083 0 20.1-9.017 20.1-20.1v-28.612c0-11.083-9.017-20.1-20.1-20.1-2.187 0-4.121-1.378-4.814-3.43-1.676-4.965-3.708-9.868-6.039-14.573-.967-1.953-.578-4.304.972-5.854 7.857-7.856 7.855-20.571.001-28.425l-20.232-20.232c-7.855-7.856-20.57-7.855-28.425 0-.011.011-.022.022-.033.033-1.547 1.522-3.879 1.901-5.821.939-4.702-2.33-9.605-4.362-14.572-6.04-2.052-.692-3.43-2.627-3.43-4.814 0-11.083-9.017-20.1-20.1-20.1h-28.613c-11.083 0-20.1 9.017-20.1 20.1 0 2.187-1.378 4.122-3.43 4.814-4.967 1.677-9.87 3.709-14.573 6.04-1.938.962-4.272.584-5.82-.939-.011-.011-.022-.022-.033-.033-7.856-7.856-20.571-7.854-28.425 0l-20.231 20.231c-7.863 7.862-7.85 20.577.003 28.429 1.547 1.547 1.936 3.898.968 5.852-2.33 4.704-4.362 9.607-6.038 14.571-.693 2.052-2.628 3.431-4.814 3.431-11.083 0-20.1 9.017-20.1 20.1v28.612c0 11.083 9.017 20.1 20.1 20.1 2.187 0 4.121 1.378 4.814 3.43 1.676 4.964 3.708 9.867 6.039 14.573.961 1.939.583 4.272-.938 5.819-.012.012-.023.023-.034.034-7.857 7.856-7.855 20.572-.001 28.426l20.232 20.232c7.855 7.856 20.57 7.855 28.425 0 .016-.016.031-.032.047-.047 1.548-1.511 3.872-1.885 5.807-.926 4.699 2.329 9.602 4.361 14.573 6.04 2.051.693 3.43 2.628 3.43 4.815 0 1.761.228 3.471.656 5.1h-190.485c-17.516-.002-31.766 14.248-31.766 31.763 0 17.516 14.25 31.766 31.766 31.766h448.468c17.516 0 31.766-14.25 31.766-31.766 0-17.515-14.25-31.765-31.766-31.765zm-243.64-5.1c0-8.626-5.478-16.272-13.631-19.026-4.336-1.464-8.612-3.236-12.712-5.269-2.837-1.405-5.884-2.088-8.906-2.088-5.21 0-10.349 2.029-14.21 5.89-.017.016-.032.033-.049.049-1.996 1.948-5.189 1.934-7.166-.044l-20.233-20.232c-1.987-1.987-1.987-5.193-.029-7.182.012-.011.022-.022.034-.034 6.102-6.102 7.629-15.392 3.802-23.115-2.033-4.105-3.806-8.382-5.269-12.713-2.753-8.153-10.399-13.631-19.025-13.631-2.812 0-5.1-2.288-5.1-5.1v-28.612c0-2.812 2.288-5.1 5.1-5.1 8.626 0 16.272-5.478 19.025-13.631 1.463-4.331 3.235-8.608 5.269-12.711 3.827-7.725 2.3-17.014-3.807-23.121-1.994-1.994-1.991-5.22.001-7.211l20.232-20.232c1.991-1.992 5.196-1.982 7.181-.031.011.012.022.023.034.035 6.102 6.101 15.394 7.629 23.115 3.802 4.104-2.033 8.381-3.805 12.713-5.268 8.153-2.753 13.631-10.399 13.631-19.026 0-2.812 2.288-5.1 5.1-5.1h28.613c2.812 0 5.1 2.288 5.1 5.1 0 8.627 5.478 16.273 13.631 19.026 4.332 1.463 8.609 3.235 12.712 5.268 7.726 3.827 17.014 2.299 23.116-3.802.012-.012.023-.023.034-.035 1.997-1.963 5.199-1.952 7.181.031l20.233 20.232c1.979 1.979 2.007 5.204-.005 7.216-6.102 6.102-7.629 15.392-3.802 23.115 2.033 4.104 3.806 8.382 5.269 12.713 2.753 8.153 10.399 13.631 19.025 13.631 2.812 0 5.1 2.288 5.1 5.1v28.612c0 2.812-2.288 5.1-5.1 5.1-8.626 0-16.272 5.478-19.025 13.631-1.463 4.33-3.235 8.607-5.268 12.711-3.828 7.724-2.301 17.014 3.801 23.116l.034.034c1.957 1.99 1.959 5.194-.03 7.183l-20.232 20.232c-1.979 1.98-5.172 1.99-7.166.044-.017-.016-.032-.033-.049-.049-6.103-6.102-15.39-7.628-23.118-3.801-4.098 2.031-8.374 3.804-12.71 5.268-8.153 2.753-13.631 10.399-13.631 19.026 0 2.812-2.288 5.1-5.1 5.1h-28.613c-2.812-.001-5.1-2.289-5.1-5.101zm243.64 53.631h-448.468c-9.245 0-16.766-7.521-16.766-16.766s7.521-16.766 16.766-16.766h448.468c9.245 0 16.766 7.521 16.766 16.766s-7.521 16.766-16.766 16.766z"/></g><path d="m483.953 49.686h-176.629v-.287c0-8.145-6.626-14.771-14.771-14.771h-29.053v-2.821c0-17.446-14.194-31.64-31.641-31.64h-119.718c-17.447 0-31.641 14.193-31.641 31.64v58.973h-52.453c-7.194 0-13.047-5.853-13.047-13.047s5.853-13.047 13.047-13.047h24.891c4.142 0 7.5-3.358 7.5-7.5s-3.358-7.5-7.5-7.5h-24.891c-15.465 0-28.047 12.582-28.047 28.047s12.582 28.047 28.047 28.047h6.3v9.664c0 16.86 13.716 30.576 30.576 30.576s30.577-13.716 30.577-30.576v-9.664h109.176v.287c0 8.145 6.626 14.771 14.771 14.771h.069l10.629 26.452c2.039 5.075 6.891 8.354 12.361 8.354h5.995v13.689c0 4.142 3.358 7.5 7.5 7.5s7.5-3.358 7.5-7.5v-13.689h5.996c5.469 0 10.321-3.279 12.361-8.354l10.628-26.452h.069c8.145 0 14.771-6.626 14.771-14.771v-.287h176.629c15.465 0 28.047-12.582 28.047-28.047s-12.584-28.047-28.049-28.047zm-403.453 65.758c0 8.589-6.988 15.576-15.577 15.576s-15.576-6.987-15.576-15.576v-9.664h31.153zm138.947-80.816c-8.145 0-14.771 6.626-14.771 14.771v.287h-81.613c-4.142 0-7.5 3.358-7.5 7.5s3.358 7.5 7.5 7.5h81.613v26.094h-109.176v-58.973c0-9.175 7.465-16.64 16.641-16.64h119.719c9.176 0 16.641 7.465 16.641 16.64v2.821zm48.914 106.017h-24.722l-7.958-19.807h40.637zm23.963-34.807c-30.911 0-42.046 0-72.648 0v-56.21h72.648zm191.629-15.058h-176.629v-26.094h176.629c7.194 0 13.047 5.853 13.047 13.047s-5.853 13.047-13.047 13.047z"/></g></g></svg>