<?xml version="1.0" encoding="UTF-8" standalone="no"?>
<!DOCTYPE svg PUBLIC "-//W3C//DTD SVG 1.1//EN" "http://www.w3.org/Graphics/SVG/1.1/DTD/svg11.dtd">
<svg version="1.1" xmlns="http://www.w3.org/2000/svg" xmlns:xlink="http://www.w3.org/1999/xlink" preserveAspectRatio="xMidYMid meet" viewBox="0 0 600 300" width="600" height="300"><defs><path d="M424.55 150C424.55 219.06 368.49 275.13 299.43 275.13C230.36 275.13 174.3 219.06 174.3 150C174.3 80.94 230.36 24.87 299.43 24.87C368.49 24.87 424.55 80.94 424.55 150Z" id="bPR4ct84e"></path><path d="M242.34 150C242.34 198.34 203.09 237.59 154.75 237.59C106.41 237.59 67.16 198.34 67.16 150C67.16 101.66 106.41 62.41 154.75 62.41C203.09 62.41 242.34 101.66 242.34 150Z" id="d4t8HYRID9"></path><path d="M532.84 150C532.84 198.34 493.59 237.59 445.25 237.59C396.91 237.59 357.66 198.34 357.66 150C357.66 101.66 396.91 62.41 445.25 62.41C493.59 62.41 532.84 101.66 532.84 150Z" id="a4hgjRvj5"></path><path d="M129.72 150C129.72 184.53 101.69 212.56 67.16 212.56C32.63 212.56 4.59 184.53 4.59 150C4.59 115.47 32.63 87.44 67.16 87.44C101.69 87.44 129.72 115.47 129.72 150Z" id="f2FEJvZ2qH"></path><path d="M595.41 150C595.41 184.53 567.37 212.56 532.84 212.56C498.31 212.56 470.28 184.53 470.28 150C470.28 115.47 498.31 87.44 532.84 87.44C567.37 87.44 595.41 115.47 595.41 150Z" id="dvIhDf7p3"></path></defs><g><g><g><g><use xlink:href="#bPR4ct84e" opacity="1" fill-opacity="0" stroke="#ffffff" fill="none" stroke-width="3" stroke-opacity="1"></use></g></g><g><g><use xlink:href="#d4t8HYRID9" opacity="1" fill-opacity="0" stroke="#ffffff" fill="none" stroke-width="3" stroke-opacity="1"></use></g></g><g><g><use xlink:href="#a4hgjRvj5" opacity="1" fill-opacity="0" fill="none" stroke="#ffffff" stroke-width="3" stroke-opacity="1"></use></g></g><g><g><use xlink:href="#f2FEJvZ2qH" opacity="1" fill-opacity="0" fill="none" stroke="#ffffff" stroke-width="3" stroke-opacity="1"></use></g></g><g><g><use xlink:href="#dvIhDf7p3" opacity="1" fill-opacity="0" fill="none" stroke="#ffffff" stroke-width="3" stroke-opacity="1"></use></g></g></g></g></svg>