<svg height="512" viewBox="0 0 74 74" width="512" xmlns="http://www.w3.org/2000/svg"><g id="Numbers"><text fill="rgb(0,0,0)" font-family="ArialMT, Arial" font-size="18" transform="translate(31.995 -141.877)">4<tspan x="-5.005" y="124">14</tspan><tspan x="-5.005" y="248">24</tspan><tspan x="-5.005" y="372">34</tspan><tspan x="-5.005" y="496">44</tspan><tspan x="-5.005" y="620">54</tspan><tspan x="-5.005" y="744">64</tspan><tspan x="-5.005" y="868">74</tspan><tspan x="-5.005" y="992">84</tspan><tspan x="-5.005" y="1116">94</tspan><tspan x="-10.011" y="1240">104</tspan><tspan letter-spacing="-.074em" x="-9.343" y="1364">1</tspan><tspan x="-.668" y="1364">14</tspan><tspan x="-10.011" y="1488">124</tspan><tspan x="-10.011" y="1612">134</tspan><tspan x="-10.011" y="1736">144</tspan><tspan x="-10.011" y="1860">154</tspan><tspan x="-10.011" y="1984">164</tspan><tspan x="-10.011" y="2108">174</tspan><tspan x="-10.011" y="2232">184</tspan><tspan x="-10.011" y="2356">194</tspan><tspan x="-10.011" y="2480">204</tspan><tspan x="-10.011" y="2604">214</tspan><tspan x="-10.011" y="2728">224</tspan><tspan x="-10.011" y="2852">234</tspan><tspan x="-10.011" y="2976">244</tspan><tspan x="-10.011" y="3100">254</tspan><tspan x="-10.011" y="3224">264</tspan><tspan x="-10.011" y="3348">274</tspan><tspan x="-10.011" y="3472">284</tspan><tspan x="-10.011" y="3596">294</tspan></text></g><g id="Icons"><path d="m36.47 66.52h-2.91a1 1 0 0 1 0-2h2.91a1 1 0 0 1 0 2z"/><path d="m58.94 66.52h-5.5a1 1 0 0 1 0-2h5.5a3.389 3.389 0 0 0 3.38-3.39v-30.71a3.389 3.389 0 0 0 -3.38-3.39h-43.88a3.389 3.389 0 0 0 -3.38 3.39v30.71a3.389 3.389 0 0 0 3.38 3.39h11.5a1 1 0 1 1 0 2h-11.5a5.391 5.391 0 0 1 -5.38-5.39v-30.71a5.391 5.391 0 0 1 5.38-5.39h43.88a5.391 5.391 0 0 1 5.38 5.39v30.71a5.391 5.391 0 0 1 -5.38 5.39z"/><path d="m46.44 66.52h-2.97a1 1 0 0 1 0-2h2.97a1 1 0 0 1 0 2z"/><path d="m63.323 54.452a1 1 0 0 1 0-2 6.678 6.678 0 0 0 0-13.355 1 1 0 0 1 0-2 8.678 8.678 0 0 1 0 17.355z"/><path d="m10.677 54.452a8.678 8.678 0 0 1 0-17.355 1 1 0 0 1 0 2 6.678 6.678 0 0 0 0 13.355 1 1 0 0 1 0 2z"/><path d="m48.653 45.449a4.7 4.7 0 1 1 4.7-4.7 4.707 4.707 0 0 1 -4.7 4.7zm0-7.4a2.7 2.7 0 1 0 2.7 2.7 2.7 2.7 0 0 0 -2.7-2.703z"/><path d="m25.347 45.449a4.7 4.7 0 1 1 4.7-4.7 4.708 4.708 0 0 1 -4.7 4.7zm0-7.4a2.7 2.7 0 1 0 2.7 2.7 2.7 2.7 0 0 0 -2.7-2.704z"/><path d="m44.5 57.365h-14.995a1 1 0 0 1 0-2h14.995a1 1 0 0 1 0 2z"/><path d="m37 27.032a1 1 0 0 1 -1-1v-8.774a1 1 0 1 1 2 0v8.774a1 1 0 0 1 -1 1z"/><path d="m37 18.258a5.387 5.387 0 1 1 5.387-5.387 5.392 5.392 0 0 1 -5.387 5.387zm0-8.774a3.387 3.387 0 1 0 3.387 3.387 3.39 3.39 0 0 0 -3.387-3.387z"/></g></svg>