<svg id="Capa_1" enable-background="new 0 0 512 512" height="512" viewBox="0 0 512 512" width="512" xmlns="http://www.w3.org/2000/svg"><g><path d="m185.634 270.87c1.451 1.387 3.317 2.078 5.181 2.078 1.921 0 3.841-.734 5.304-2.196l50.24-50.241c2.929-2.93 2.929-7.678 0-10.607-2.929-2.928-7.678-2.928-10.607 0l-45.056 45.057-26.958-25.764c-2.994-2.862-7.742-2.755-10.604.24-2.862 2.994-2.754 7.742.24 10.604z"/><path d="m231.208 465.9c0-4.143-3.358-7.5-7.5-7.5h-46.85c-4.142 0-7.5 3.357-7.5 7.5s3.358 7.5 7.5 7.5h46.85c4.142 0 7.5-3.357 7.5-7.5z"/><path d="m494.551 500.481c9.621 0 17.449-7.827 17.449-17.448v-309.739c0-9.621-7.828-17.449-17.449-17.449h-93.985v-112.986c0-17.281-14.06-31.341-31.341-31.341h-337.884c-17.281.001-31.341 14.06-31.341 31.341v426.281c0 17.281 14.06 31.341 31.341 31.341zm-479.551-31.34v-426.282c0-9.011 7.331-16.341 16.341-16.341h337.884c9.011 0 16.341 7.33 16.341 16.341v112.985h-15.596v-96.693c0-9.394-7.643-17.036-17.037-17.036h-305.3c-9.394 0-17.037 7.643-17.037 17.036v60.825c0 4.143 3.358 7.5 7.5 7.5s7.5-3.357 7.5-7.5v-60.825c0-1.123.914-2.036 2.037-2.036h305.3c1.123 0 2.037.913 2.037 2.036v96.693h-63.388c-8.096 0-14.901 5.55-16.863 13.04-18.579-21.438-45.627-34.079-74.912-34.079-54.728 0-99.252 44.524-99.252 99.252 0 20.982 6.468 41.041 18.706 58.007 1.466 2.032 3.76 3.113 6.089 3.113 1.52 0 3.054-.461 4.381-1.418 3.359-2.424 4.118-7.111 1.695-10.471-10.383-14.395-15.871-31.419-15.871-49.231 0-46.457 37.795-84.252 84.252-84.252 31.314 0 59.612 17.03 74.326 44.563v79.376c-14.714 27.522-43.058 44.566-74.326 44.566-16.744 0-32.917-4.897-46.771-14.163-3.444-2.304-8.101-1.379-10.404 2.065-2.303 3.442-1.378 8.101 2.065 10.403 16.331 10.922 35.387 16.694 55.11 16.694 28.94 0 55.754-12.395 74.326-33.429v131.438h-46.178-55.343-124.979c-1.123 0-2.037-.914-2.037-2.037v-276.618c0-4.143-3.358-7.5-7.5-7.5s-7.5 3.357-7.5 7.5v276.619c0 9.395 7.643 17.037 17.037 17.037h96.496c-3.842 5.571-6.099 12.316-6.099 19.581s2.257 14.01 6.099 19.581h-112.788c-9.01 0-16.341-7.33-16.341-16.34zm259.325 16.34h-17.887c3.842-5.571 6.099-12.316 6.099-19.581s-2.257-14.01-6.099-19.581h17.695v36.714c-.001.833.078 1.646.192 2.448zm-101.713 0c-10.797 0-19.581-8.784-19.581-19.581s8.784-19.581 19.581-19.581h55.343c10.797 0 19.581 8.784 19.581 19.581s-8.784 19.581-19.581 19.581zm321.939 0h-202.97c-1.351 0-2.449-1.099-2.449-2.448v-49.41h131.496c4.142 0 7.5-3.357 7.5-7.5 0-4.142-3.358-7.5-7.5-7.5h-131.496v-224.875c.104-.711.106-1.439 0-2.165v-18.29c0-1.35 1.099-2.449 2.449-2.449h202.97c1.35 0 2.449 1.099 2.449 2.449v245.329h-43.685c-4.142 0-7.5 3.358-7.5 7.5 0 4.143 3.358 7.5 7.5 7.5h43.685v49.41c0 1.351-1.099 2.449-2.449 2.449z"/><path d="m393.066 452.4c-3.95 0-7.152 3.202-7.152 7.152 0 3.95 3.202 7.152 7.152 7.152s7.152-3.202 7.152-7.152c.001-3.95-3.202-7.152-7.152-7.152z"/><path d="m393.066 245.933c-34.917 0-63.323 28.406-63.323 63.323 0 34.916 28.406 63.322 63.323 63.322 34.916 0 63.322-28.406 63.322-63.322.001-34.917-28.406-63.323-63.322-63.323zm0 111.645c-26.646 0-48.323-21.678-48.323-48.322 0-26.645 21.677-48.323 48.323-48.323 26.645 0 48.322 21.678 48.322 48.323.001 26.644-21.677 48.322-48.322 48.322z"/><path d="m358.524 200.499h69.084c4.142 0 7.5-3.357 7.5-7.5s-3.358-7.5-7.5-7.5h-69.084c-4.142 0-7.5 3.357-7.5 7.5s3.358 7.5 7.5 7.5z"/><path d="m412.859 292.483-25.382 25.382-14.326-13.69c-2.994-2.862-7.742-2.755-10.604.24-2.862 2.994-2.754 7.742.24 10.604l19.627 18.757c1.451 1.387 3.317 2.078 5.181 2.078 1.921 0 3.841-.734 5.304-2.196l30.566-30.566c2.929-2.93 2.929-7.678 0-10.607-2.928-2.929-7.677-2.929-10.606-.002z"/></g></svg>