<svg id="Layer_1" enable-background="new 0 0 512 512" height="512" viewBox="0 0 512 512" width="512" xmlns="http://www.w3.org/2000/svg"><g><path d="m114.957 180.658c.157 4.144 3.688 7.368 7.795 7.193 57.688-2.316 146.62-4.399 242.667-1.172 4.126.145 7.608-3.104 7.748-7.244.139-4.14-3.104-7.608-7.244-7.748-16.36-.55-32.514-.946-48.344-1.214-.743-27.362-2.038-44.43-2.053-44.614-.272-3.552-3.007-6.422-6.541-6.867-.46-.058-6.546-.81-16.934-1.5-.391-29.387-1.079-47.706-1.087-47.902-.126-3.322-2.425-6.165-5.646-6.984-.483-.123-12.034-3.008-29.468-3.008-17.433 0-28.985 2.885-29.468 3.008-3.222.819-5.521 3.662-5.647 6.984-.007.196-.695 18.515-1.085 47.902-10.387.689-16.473 1.442-16.933 1.499-3.535.445-6.269 3.314-6.542 6.867-.014.184-1.316 17.352-2.058 44.853-27.186.538-51.529 1.33-71.967 2.15-4.138.168-7.359 3.658-7.193 7.797zm120.571-104.552c4.488-.704 11.533-1.506 20.323-1.506 8.73 0 15.809.809 20.322 1.515.229 7.479.609 21.665.867 40.609-12.285-.504-30.093-.504-42.378 0 .258-18.95.638-33.14.866-40.618zm-24.809 57.141c8.257-.752 24.344-1.909 45.133-1.909 20.791 0 36.877 1.157 45.132 1.909.433 7.113 1.114 19.993 1.584 37.009-33.154-.401-64.677-.258-93.438.191.47-17.111 1.155-30.061 1.589-37.2z"/><path d="m509.344 242.238c-.444-3.531-3.309-6.264-6.856-6.541-.739-.058-17.123-1.321-44.469-2.058-.983-15.564-1.606-32.293-1.606-50.279 0-3.944-3.055-7.214-6.989-7.482-15.567-1.062-31.782-1.993-48.195-2.768-9.934-.136-10.603 14.179-.707 14.983 13.877.655 27.609 1.422 40.923 2.286.429 48.692 5.233 87.894 9.129 119.673 5.438 44.375 9.032 73.691-4.514 90.368-10.186 12.541-30.921 19.904-68.369 24.021 44.424-144.928-146.112-235.68-230.372-109.68-2.219 3.496-1.184 8.13 2.313 10.351 3.498 2.219 8.132 1.185 10.352-2.312 20.965-33.024 56.803-52.74 95.867-52.74 100.021-.232 151.252 122.396 80.723 193.207-2.91 2.946-2.88 7.695.067 10.606 2.945 2.911 7.694 2.882 10.606-.064 9.885-10.007 17.934-21.358 23.975-33.636 71.643-7.546 101.614-21.198 99.05-83.454 20.017-.727 31.671-1.628 32.216-1.671 3.548-.277 6.412-3.01 6.856-6.541.108-.862 2.656-21.477 2.656-53.134 0-31.658-2.547-52.273-2.656-53.135zm-14.254 98.272c-5.449.335-14.298.817-25.847 1.233-2.984-30.83-7.432-58.454-10.142-93.069 16.575.467 29.047 1.132 35.991 1.559.752 8.24 1.908 24.299 1.908 45.138 0 20.795-1.158 36.885-1.91 45.139z"/><path d="m81.251 136.871h41.2c9.931-.344 9.923-14.659 0-15h-41.2c-9.931.344-9.923 14.659 0 15z"/><path d="m81.251 107.852h21.2c9.931-.344 9.923-14.659 0-15h-21.2c-9.931.344-9.923 14.659 0 15z"/><path d="m359.251 54.564h41.199c9.931-.344 9.923-14.66 0-15h-41.199c-9.93.343-9.923 14.659 0 15z"/><path d="m379.251 25.545h21.199c9.931-.344 9.923-14.66 0-15h-21.199c-9.93.343-9.923 14.659 0 15z"/><path d="m115.519 40.054h17.543v17.56c.344 9.931 14.659 9.923 15 0v-17.56h17.543c9.931-.344 9.923-14.659 0-15h-17.543v-17.56c-.344-9.931-14.659-9.923-15 0v17.56h-17.543c-9.931.345-9.923 14.659 0 15z"/><path d="m371.794 134.1c0 4.142 3.357 7.5 7.5 7.5h39.913c4.143 0 7.5-3.358 7.5-7.5v-39.913c-.344-9.931-14.66-9.923-15 0v32.413h-32.413c-4.142 0-7.5 3.358-7.5 7.5z"/><path d="m312.672 481.765c-89.347 51.376-195.724-33.922-165.083-132.32 1.242-3.952-.954-8.162-4.905-9.405-3.955-1.243-8.162.954-9.405 4.905-8.129 25.359-7.77 54.582.774 79.469-84.078-9.249-83.042-32.535-72.626-114.361 3.894-31.773 8.698-70.966 9.128-119.646 4.48-.268 11.022-.641 19.326-1.064 9.904-.848 9.157-15.151-.764-14.98-16.772.855-26.444 1.509-26.54 1.515-3.936.268-6.992 3.538-6.992 7.483 0 17.985-.623 34.715-1.606 50.279-27.346.737-43.73 2-44.468 2.058-3.548.277-6.413 3.01-6.857 6.541-.107.861-2.654 21.476-2.654 53.133s2.547 52.272 2.656 53.134c.444 3.531 3.309 6.264 6.857 6.541.544.043 12.199.943 32.216 1.671-2.559 62.167 27.303 75.875 98.82 83.433 30.383 64.741 116.347 92.574 179.648 54.59 3.583-2.076 4.804-6.665 2.726-10.249-2.077-3.583-6.664-4.804-10.251-2.727zm-266.133-173.537c-1.494 12.185-2.859 23.323-3.781 33.516-11.549-.417-20.399-.898-25.848-1.233-.752-8.255-1.91-24.344-1.91-45.139s1.158-36.883 1.91-45.138c6.945-.427 19.415-1.091 35.99-1.559-1.799 22.33-4.219 42.077-6.361 59.553z"/><path d="m220.981 444.726c2.913 1.445 6.477.839 8.75-1.546.382-.4 38.579-40.112 75.674-52.542 6.767-2.234 6.764-11.99 0-14.223-37.047-12.414-75.194-52.04-75.672-52.54-2.27-2.381-5.825-3.005-8.771-1.539-2.945 1.466-4.59 4.681-4.059 7.927.085.522 8.454 52.799-.007 106.573-.51 3.241 1.145 6.436 4.085 7.89zm62.833-61.199c-19.493 9.828-37.459 24.047-49.539 34.702 2.462-27.535 1.333-52.74-.124-69.512 12.08 10.666 30.103 24.948 49.663 34.81z"/><path d="m104.999 216.607c0-4.142-3.358-7.5-7.5-7.5-9.928.343-9.926 14.658 0 15 4.142 0 7.5-3.358 7.5-7.5z"/><path d="m81.999 380.612c0 4.142 3.358 7.5 7.5 7.5 9.928-.343 9.926-14.658 0-15-4.143 0-7.5 3.358-7.5 7.5z"/><path d="m414.499 209.107c-4.142 0-7.5 3.358-7.5 7.5.343 9.928 14.658 9.926 15 0 0-4.142-3.358-7.5-7.5-7.5z"/><path d="m414.999 380.612c0 4.142 3.358 7.5 7.5 7.5 9.928-.343 9.926-14.658 0-15-4.143 0-7.5 3.358-7.5 7.5z"/></g></svg>