<svg width="23" height="23" viewBox="0 0 23 23" fill="none" xmlns="http://www.w3.org/2000/svg">
<path d="M20.4844 2.875H18.6875V2.15625C18.6875 1.775 18.536 1.40937 18.2665 1.13978C17.9969 0.8702 17.6312 0.71875 17.25 0.71875C16.8688 0.71875 16.5031 0.8702 16.2335 1.13978C15.964 1.40937 15.8125 1.775 15.8125 2.15625V2.875H12.9375V2.15625C12.9375 1.775 12.786 1.40937 12.5165 1.13978C12.2469 0.8702 11.8812 0.71875 11.5 0.71875C11.1188 0.71875 10.7531 0.8702 10.4835 1.13978C10.214 1.40937 10.0625 1.775 10.0625 2.15625V2.875H7.1875V2.15625C7.1875 1.775 7.03605 1.40937 6.76647 1.13978C6.49688 0.8702 6.13125 0.71875 5.75 0.71875C5.36875 0.71875 5.00312 0.8702 4.73353 1.13978C4.46395 1.40937 4.3125 1.775 4.3125 2.15625V2.875H2.51562C2.03906 2.875 1.58202 3.06431 1.24504 3.40129C0.908063 3.73827 0.71875 4.19531 0.71875 4.67188V19.0469C0.71875 19.5234 0.908063 19.9805 1.24504 20.3175C1.58202 20.6544 2.03906 20.8438 2.51562 20.8438H12.5781C12.6734 20.8438 12.7648 20.8059 12.8322 20.7385C12.8996 20.6711 12.9375 20.5797 12.9375 20.4844C12.9375 20.3891 12.8996 20.2977 12.8322 20.2303C12.7648 20.1629 12.6734 20.125 12.5781 20.125H2.51562C2.22995 20.1241 1.95622 20.0103 1.75422 19.8083C1.55222 19.6063 1.43835 19.3326 1.4375 19.0469V7.90625H21.5625V14.0156C21.5625 14.1109 21.6004 14.2023 21.6678 14.2697C21.7352 14.3371 21.8266 14.375 21.9219 14.375C22.0172 14.375 22.1086 14.3371 22.176 14.2697C22.2434 14.2023 22.2812 14.1109 22.2812 14.0156V4.67188C22.2812 4.19531 22.0919 3.73827 21.755 3.40129C21.418 3.06431 20.9609 2.875 20.4844 2.875ZM16.5312 2.15625C16.5312 1.96563 16.607 1.78281 16.7418 1.64802C16.8766 1.51323 17.0594 1.4375 17.25 1.4375C17.4406 1.4375 17.6234 1.51323 17.7582 1.64802C17.893 1.78281 17.9688 1.96563 17.9688 2.15625V4.3125C17.9688 4.50312 17.893 4.68594 17.7582 4.82073C17.6234 4.95552 17.4406 5.03125 17.25 5.03125C17.0594 5.03125 16.8766 4.95552 16.7418 4.82073C16.607 4.68594 16.5312 4.50312 16.5312 4.3125V2.15625ZM10.7812 2.15625C10.7812 1.96563 10.857 1.78281 10.9918 1.64802C11.1266 1.51323 11.3094 1.4375 11.5 1.4375C11.6906 1.4375 11.8734 1.51323 12.0082 1.64802C12.143 1.78281 12.2188 1.96563 12.2188 2.15625V4.3125C12.2188 4.50312 12.143 4.68594 12.0082 4.82073C11.8734 4.95552 11.6906 5.03125 11.5 5.03125C11.3094 5.03125 11.1266 4.95552 10.9918 4.82073C10.857 4.68594 10.7812 4.50312 10.7812 4.3125V2.15625ZM5.03125 2.15625C5.03125 1.96563 5.10698 1.78281 5.24177 1.64802C5.37656 1.51323 5.55938 1.4375 5.75 1.4375C5.94062 1.4375 6.12344 1.51323 6.25823 1.64802C6.39302 1.78281 6.46875 1.96563 6.46875 2.15625V4.3125C6.46875 4.50312 6.39302 4.68594 6.25823 4.82073C6.12344 4.95552 5.94062 5.03125 5.75 5.03125C5.55938 5.03125 5.37656 4.95552 5.24177 4.82073C5.10698 4.68594 5.03125 4.50312 5.03125 4.3125V2.15625ZM21.5625 7.1875H1.4375V4.67188C1.43835 4.3862 1.55222 4.11247 1.75422 3.91047C1.95622 3.70846 2.22995 3.5946 2.51562 3.59375H4.3125V4.3125C4.3125 4.69375 4.46395 5.05938 4.73353 5.32897C5.00312 5.59855 5.36875 5.75 5.75 5.75C6.13125 5.75 6.49688 5.59855 6.76647 5.32897C7.03605 5.05938 7.1875 4.69375 7.1875 4.3125V3.59375H10.0625V4.3125C10.0625 4.69375 10.214 5.05938 10.4835 5.32897C10.7531 5.59855 11.1188 5.75 11.5 5.75C11.8812 5.75 12.2469 5.59855 12.5165 5.32897C12.786 5.05938 12.9375 4.69375 12.9375 4.3125V3.59375H15.8125V4.3125C15.8125 4.69375 15.964 5.05938 16.2335 5.32897C16.5031 5.59855 16.8688 5.75 17.25 5.75C17.6312 5.75 17.9969 5.59855 18.2665 5.32897C18.536 5.05938 18.6875 4.69375 18.6875 4.3125V3.59375H20.4844C20.7701 3.5946 21.0438 3.70846 21.2458 3.91047C21.4478 4.11247 21.5616 4.3862 21.5625 4.67188V7.1875Z" fill="white"/>
<path d="M10.7812 10.4219C10.7812 10.2313 10.7055 10.0484 10.5707 9.91364C10.4359 9.77885 10.2531 9.70312 10.0625 9.70312H8.625C8.43438 9.70312 8.25156 9.77885 8.11677 9.91364C7.98198 10.0484 7.90625 10.2313 7.90625 10.4219V11.5C7.90625 11.6906 7.98198 11.8734 8.11677 12.0082C8.25156 12.143 8.43438 12.2188 8.625 12.2188H10.0625C10.2531 12.2188 10.4359 12.143 10.5707 12.0082C10.7055 11.8734 10.7812 11.6906 10.7812 11.5V10.4219ZM8.625 11.5V10.4219H10.0625V11.5H8.625Z" fill="white"/>
<path d="M6.46875 10.4219C6.46875 10.2313 6.39302 10.0484 6.25823 9.91364C6.12344 9.77885 5.94062 9.70312 5.75 9.70312H4.3125C4.12188 9.70312 3.93906 9.77885 3.80427 9.91364C3.66948 10.0484 3.59375 10.2313 3.59375 10.4219V11.5C3.59375 11.6906 3.66948 11.8734 3.80427 12.0082C3.93906 12.143 4.12188 12.2188 4.3125 12.2188H5.75C5.94062 12.2188 6.12344 12.143 6.25823 12.0082C6.39302 11.8734 6.46875 11.6906 6.46875 11.5V10.4219ZM4.3125 11.5V10.4219H5.75V11.5H4.3125Z" fill="white"/>
<path d="M18.6875 12.2188C18.8781 12.2188 19.0609 12.143 19.1957 12.0082C19.3305 11.8734 19.4062 11.6906 19.4062 11.5V10.4219C19.4062 10.2313 19.3305 10.0484 19.1957 9.91364C19.0609 9.77885 18.8781 9.70312 18.6875 9.70312H17.25C17.0594 9.70312 16.8766 9.77885 16.7418 9.91364C16.607 10.0484 16.5312 10.2313 16.5312 10.4219V11.5C16.5312 11.6906 16.607 11.8734 16.7418 12.0082C16.8766 12.143 17.0594 12.2188 17.25 12.2188H18.6875ZM17.25 10.4219H18.6875V11.5H17.25V10.4219Z" fill="white"/>
<path d="M10.7812 13.6562C10.7812 13.4656 10.7055 13.2828 10.5707 13.148C10.4359 13.0132 10.2531 12.9375 10.0625 12.9375H8.625C8.43438 12.9375 8.25156 13.0132 8.11677 13.148C7.98198 13.2828 7.90625 13.4656 7.90625 13.6562V14.7344C7.90625 14.925 7.98198 15.1078 8.11677 15.2426C8.25156 15.3774 8.43438 15.4531 8.625 15.4531H10.0625C10.2531 15.4531 10.4359 15.3774 10.5707 15.2426C10.7055 15.1078 10.7812 14.925 10.7812 14.7344V13.6562ZM8.625 14.7344V13.6562H10.0625V14.7344H8.625Z" fill="white"/>
<path d="M6.46875 13.6562C6.46875 13.4656 6.39302 13.2828 6.25823 13.148C6.12344 13.0132 5.94062 12.9375 5.75 12.9375H4.3125C4.12188 12.9375 3.93906 13.0132 3.80427 13.148C3.66948 13.2828 3.59375 13.4656 3.59375 13.6562V14.7344C3.59375 14.925 3.66948 15.1078 3.80427 15.2426C3.93906 15.3774 4.12188 15.4531 4.3125 15.4531H5.75C5.94062 15.4531 6.12344 15.3774 6.25823 15.2426C6.39302 15.1078 6.46875 14.925 6.46875 14.7344V13.6562ZM4.3125 14.7344V13.6562H5.75V14.7344H4.3125Z" fill="white"/>
<path d="M10.0625 16.1719H8.625C8.43438 16.1719 8.25156 16.2476 8.11677 16.3824C7.98198 16.5172 7.90625 16.7 7.90625 16.8906V17.9688C7.90625 18.1594 7.98198 18.3422 8.11677 18.477C8.25156 18.6118 8.43438 18.6875 8.625 18.6875H10.0625C10.2531 18.6875 10.4359 18.6118 10.5707 18.477C10.7055 18.3422 10.7812 18.1594 10.7812 17.9688V16.8906C10.7812 16.7 10.7055 16.5172 10.5707 16.3824C10.4359 16.2476 10.2531 16.1719 10.0625 16.1719ZM8.625 17.9688V16.8906H10.0625V17.9688H8.625Z" fill="white"/>
<path d="M12.9375 12.2188H14.375C14.5656 12.2188 14.7484 12.143 14.8832 12.0082C15.018 11.8734 15.0938 11.6906 15.0938 11.5V10.4219C15.0938 10.2313 15.018 10.0484 14.8832 9.91364C14.7484 9.77885 14.5656 9.70312 14.375 9.70312H12.9375C12.7469 9.70312 12.5641 9.77885 12.4293 9.91364C12.2945 10.0484 12.2188 10.2313 12.2188 10.4219V11.5C12.2188 11.6906 12.2945 11.8734 12.4293 12.0082C12.5641 12.143 12.7469 12.2188 12.9375 12.2188ZM12.9375 10.4219H14.375V11.5H12.9375V10.4219Z" fill="white"/>
<path d="M12.2188 14.7344C12.2188 14.925 12.2945 15.1078 12.4293 15.2426C12.5641 15.3774 12.7469 15.4531 12.9375 15.4531C13.0328 15.4531 13.1242 15.4153 13.1916 15.3479C13.259 15.2805 13.2969 15.1891 13.2969 15.0938C13.2969 14.9984 13.259 14.907 13.1916 14.8396C13.1242 14.7722 13.0328 14.7344 12.9375 14.7344V13.6562H14.375C14.4703 13.6562 14.5617 13.6184 14.6291 13.551C14.6965 13.4836 14.7344 13.3922 14.7344 13.2969C14.7344 13.2016 14.6965 13.1102 14.6291 13.0428C14.5617 12.9754 14.4703 12.9375 14.375 12.9375H12.9375C12.7469 12.9375 12.5641 13.0132 12.4293 13.148C12.2945 13.2828 12.2188 13.4656 12.2188 13.6562V14.7344Z" fill="white"/>
<path d="M5.75 16.1719H4.3125C4.12188 16.1719 3.93906 16.2476 3.80427 16.3824C3.66948 16.5172 3.59375 16.7 3.59375 16.8906V17.9688C3.59375 18.1594 3.66948 18.3422 3.80427 18.477C3.93906 18.6118 4.12188 18.6875 4.3125 18.6875H5.75C5.94062 18.6875 6.12344 18.6118 6.25823 18.477C6.39302 18.3422 6.46875 18.1594 6.46875 17.9688V16.8906C6.46875 16.7 6.39302 16.5172 6.25823 16.3824C6.12344 16.2476 5.94062 16.1719 5.75 16.1719ZM4.3125 17.9688V16.8906H5.75V17.9688H4.3125Z" fill="white"/>
<path d="M17.6094 12.9375C16.6854 12.9375 15.7821 13.2115 15.0138 13.7249C14.2455 14.2382 13.6467 14.9679 13.2931 15.8215C12.9395 16.6752 12.847 17.6146 13.0273 18.5208C13.2075 19.4271 13.6525 20.2595 14.3059 20.9129C14.9592 21.5663 15.7917 22.0112 16.6979 22.1915C17.6042 22.3717 18.5435 22.2792 19.3972 21.9256C20.2509 21.572 20.9805 20.9732 21.4939 20.2049C22.0072 19.4366 22.2812 18.5334 22.2812 17.6094C22.2798 16.3708 21.7871 15.1833 20.9113 14.3074C20.0355 13.4316 18.848 12.9389 17.6094 12.9375ZM17.6094 21.5625C16.8275 21.5625 16.0632 21.3306 15.4131 20.8963C14.763 20.4619 14.2564 19.8445 13.9572 19.1222C13.658 18.3998 13.5797 17.605 13.7322 16.8382C13.8847 16.0713 14.2612 15.3669 14.8141 14.8141C15.3669 14.2612 16.0713 13.8847 16.8382 13.7322C17.605 13.5797 18.3998 13.658 19.1222 13.9572C19.8445 14.2564 20.4619 14.763 20.8963 15.4131C21.3306 16.0632 21.5625 16.8275 21.5625 17.6094C21.5613 18.6574 21.1444 19.6622 20.4033 20.4033C19.6622 21.1444 18.6574 21.5613 17.6094 21.5625Z" fill="white"/>
<path d="M19.6859 16.1028L16.8907 18.8981L15.6203 17.6273C15.5525 17.5618 15.4617 17.5256 15.3675 17.5264C15.2733 17.5273 15.1831 17.5651 15.1165 17.6317C15.0499 17.6983 15.0121 17.7884 15.0112 17.8827C15.0104 17.9769 15.0466 18.0677 15.1121 18.1355L16.6366 19.6603C16.704 19.7277 16.7954 19.7655 16.8907 19.7655C16.9859 19.7655 17.0773 19.7277 17.1447 19.6603L20.194 16.611C20.2595 16.5432 20.2957 16.4524 20.2949 16.3582C20.2941 16.264 20.2563 16.1738 20.1897 16.1072C20.123 16.0406 20.0329 16.0028 19.9387 16.002C19.8444 16.0011 19.7537 16.0374 19.6859 16.1028Z" fill="white"/>
</svg>
