<svg width="26" height="26" viewBox="0 0 26 26" fill="none" xmlns="http://www.w3.org/2000/svg">
<circle cx="13" cy="13" r="12.5" fill="#003366" stroke="white"/>
<g clip-path="url(#clip0)">
<path d="M9.27033 13.2855L14.0806 18.0825C14.2382 18.2395 14.4934 18.2393 14.6507 18.0817C14.808 17.924 14.8076 17.6687 14.6499 17.5115L10.126 13.0001L14.6501 8.48859C14.8077 8.33137 14.8081 8.07622 14.6509 7.9186C14.572 7.83958 14.4687 7.80008 14.3654 7.80008C14.2623 7.80008 14.1594 7.83932 14.0807 7.91779L9.27033 12.7147C9.19443 12.7902 9.15183 12.893 9.15183 13.0001C9.15183 13.1071 9.19455 13.2098 9.27033 13.2855Z" fill="white"/>
</g>
<defs>
<clipPath id="clip0">
<rect width="10.4" height="10.4" fill="white" transform="translate(17.1602 18.2001) rotate(-180)"/>
</clipPath>
</defs>
</svg>
