<svg width="25" height="23" viewBox="0 0 25 23" fill="none" xmlns="http://www.w3.org/2000/svg">
<path d="M24.7342 8.80208L12.8838 0.125464C12.6553 -0.0418213 12.3448 -0.0418213 12.1164 0.125464L0.265897 8.80208C-0.0235557 9.01404 -0.0864464 9.42048 0.125517 9.70994C0.337479 9.99939 0.743974 10.0622 1.03338 9.85032L12.5 1.45461L23.9667 9.85027C24.0823 9.93499 24.2167 9.97576 24.3499 9.97576C24.5499 9.97576 24.7472 9.88372 24.8745 9.70989C25.0865 9.42048 25.0236 9.01404 24.7342 8.80208Z" fill="white"/>
<path d="M21.5942 9.99731C21.2355 9.99731 20.9446 10.2881 20.9446 10.6469V20.9862H15.7482V15.3423C15.7482 13.5513 14.2911 12.0943 12.5002 12.0943C10.7093 12.0943 9.25215 13.5514 9.25215 15.3423V20.9862H4.05571V10.6469C4.05571 10.2882 3.76484 9.99736 3.40615 9.99736C3.04746 9.99736 2.75659 10.2882 2.75659 10.6469V21.6358C2.75659 21.9946 3.04746 22.2854 3.40615 22.2854H9.90171C10.2433 22.2854 10.5229 22.0215 10.5487 21.6864C10.5503 21.6712 10.5513 21.6546 10.5513 21.6358V15.3424C10.5513 14.2677 11.4255 13.3935 12.5002 13.3935C13.5749 13.3935 14.4491 14.2678 14.4491 15.3424V21.6358C14.4491 21.6545 14.4501 21.6708 14.4517 21.6858C14.4772 22.0211 14.7569 22.2854 15.0987 22.2854H21.5942C21.953 22.2854 22.2438 21.9946 22.2438 21.6358V10.6469C22.2438 10.2881 21.9529 9.99731 21.5942 9.99731Z" fill="white"/>
</svg>
