<svg width="25" height="25" viewBox="0 0 25 25" fill="none" xmlns="http://www.w3.org/2000/svg">
<g clip-path="url(#clip0)">
<path d="M12.4999 4.34778C10.4021 4.34778 8.69556 6.05428 8.69556 8.15214C8.69556 10.25 10.4021 11.9565 12.4999 11.9565C14.5978 11.9565 16.3043 10.2499 16.3043 8.15214C16.3043 6.05433 14.5978 4.34778 12.4999 4.34778ZM12.4999 10.8695C11.0021 10.8695 9.78255 9.64995 9.78255 8.15214C9.78255 6.65433 11.0021 5.43477 12.4999 5.43477C13.9977 5.43477 15.2173 6.65433 15.2173 8.15214C15.2173 9.64995 13.9978 10.8695 12.4999 10.8695Z" fill="white"/>
<path d="M20.1087 8.69568C18.6109 8.69568 17.3914 9.91524 17.3914 11.4131C17.3914 12.9109 18.6109 14.1304 20.1087 14.1304C21.6065 14.1304 22.8261 12.9109 22.8261 11.4131C22.8261 9.91524 21.6065 8.69568 20.1087 8.69568ZM20.1087 13.0435C19.2098 13.0435 18.4783 12.312 18.4783 11.4131C18.4783 10.5141 19.2098 9.78262 20.1087 9.78262C21.0077 9.78262 21.7392 10.5141 21.7392 11.4131C21.7392 12.312 21.0076 13.0435 20.1087 13.0435Z" fill="white"/>
<path d="M4.96859 8.69568C3.46966 8.69568 2.25122 9.91524 2.25122 11.4131C2.25122 12.9109 3.47079 14.1304 4.96859 14.1304C6.4664 14.1304 7.68597 12.9109 7.68597 11.4131C7.68597 9.91524 6.46747 8.69568 4.96859 8.69568ZM4.96859 13.0435C4.06966 13.0435 3.33816 12.312 3.33816 11.4131C3.33816 10.5141 4.06966 9.78262 4.96859 9.78262C5.86752 9.78262 6.59903 10.5141 6.59903 11.4131C6.59903 12.312 5.86747 13.0435 4.96859 13.0435Z" fill="white"/>
<path d="M12.5 13.0435C8.60438 13.0435 5.43481 16.213 5.43481 20.1087C5.43481 20.4087 5.67831 20.6522 5.97831 20.6522C6.27831 20.6522 6.5218 20.4087 6.5218 20.1087C6.5218 16.8119 9.20331 14.1304 12.5 14.1304C15.7968 14.1304 18.4783 16.8119 18.4783 20.1087C18.4783 20.4087 18.7218 20.6522 19.0218 20.6522C19.3218 20.6522 19.5653 20.4087 19.5653 20.1087C19.5653 16.213 16.3957 13.0435 12.5 13.0435Z" fill="white"/>
<path d="M20.1088 15.2174C19.2143 15.2174 18.3382 15.462 17.5751 15.9239C17.3197 16.0805 17.2371 16.4141 17.3925 16.6707C17.5501 16.9272 17.8827 17.0087 18.1393 16.8533C18.7316 16.4935 19.4121 16.3043 20.1088 16.3043C22.2066 16.3043 23.9132 18.0108 23.9132 20.1087C23.9132 20.4087 24.1567 20.6522 24.4567 20.6522C24.7567 20.6522 25.0002 20.4087 25.0002 20.1087C25.0001 17.412 22.8056 15.2174 20.1088 15.2174Z" fill="white"/>
<path d="M7.42393 15.9228C6.66195 15.462 5.7859 15.2174 4.8913 15.2174C2.19456 15.2174 0 17.412 0 20.1087C0 20.4087 0.243495 20.6522 0.543495 20.6522C0.843495 20.6522 1.08699 20.4087 1.08699 20.1087C1.08694 18.0108 2.79349 16.3043 4.8913 16.3043C5.58806 16.3043 6.26846 16.4935 6.8598 16.8522C7.11521 17.0076 7.45001 16.9261 7.60653 16.6696C7.76306 16.413 7.68041 16.0793 7.42393 15.9228Z" fill="white"/>
</g>
<defs>
<clipPath id="clip0">
<rect width="25" height="25" fill="white"/>
</clipPath>
</defs>
</svg>
