<svg width="25" height="25" viewBox="0 0 25 25" fill="none" xmlns="http://www.w3.org/2000/svg">
<path d="M4.16667 10.4411H9.58333C9.81375 10.4411 10 10.2377 10 9.98716C10 9.73658 9.81375 9.5332 9.58333 9.5332H4.16667C3.93625 9.5332 3.75 9.73658 3.75 9.98716C3.75 10.2377 3.93625 10.4411 4.16667 10.4411Z" fill="white"/>
<path d="M15 12.257H4.16667C3.93625 12.257 3.75 12.4603 3.75 12.7109C3.75 12.9615 3.93625 13.1649 4.16667 13.1649H15C15.2304 13.1649 15.4167 12.9615 15.4167 12.7109C15.4167 12.4603 15.2304 12.257 15 12.257Z" fill="white"/>
<path d="M15 14.9807H4.16667C3.93625 14.9807 3.75 15.1841 3.75 15.4347C3.75 15.6853 3.93625 15.8886 4.16667 15.8886H15C15.2304 15.8886 15.4167 15.6853 15.4167 15.4347C15.4167 15.1841 15.2304 14.9807 15 14.9807Z" fill="white"/>
<path d="M22.53 0.0317772L8.30417 0C6.94167 0 5.83333 1.20753 5.83333 2.69198V5.01807L2.47083 5.02578C1.10833 5.02578 0 6.23332 0 7.71776V17.3149C0 18.7994 1.10833 20.0064 2.47083 20.0064H5V24.546C5 24.7335 5.10583 24.9019 5.26667 24.9696C5.31542 24.99 5.36625 25 5.41667 25C5.53167 25 5.64458 24.9478 5.725 24.8516L9.76833 20.0055L16.6958 19.9747C18.0583 19.9747 19.1667 18.7671 19.1667 17.2831V17.2318L21.3583 19.8585C21.4387 19.9547 21.5517 20.0069 21.6667 20.0069C21.7171 20.0069 21.7679 19.9969 21.8167 19.9765C21.9775 19.9088 22.0833 19.7404 22.0833 19.5529V15.0133H22.5292C23.8917 15.0133 25 13.8058 25 12.3218V2.72376C25 1.23976 23.8921 0.0322312 22.53 0.0317772ZM18.3333 17.2827C18.3333 18.2664 17.5988 19.0663 16.6942 19.0663L9.58167 19.0981C9.465 19.0985 9.35333 19.1525 9.275 19.2465L5.83333 23.3716V19.552C5.83333 19.3014 5.64708 19.0981 5.41667 19.0981H2.47083C1.56792 19.0981 0.833333 18.2977 0.833333 17.3145V7.71731C0.833333 6.73358 1.56792 5.93325 2.47167 5.93325L6.25 5.92462C6.25042 5.92462 6.25042 5.92462 6.25083 5.92462L16.6958 5.90102C17.5987 5.90102 18.3333 6.70135 18.3333 7.68508V16.0565V17.2827ZM24.1667 12.3209C24.1667 13.3046 23.4321 14.1045 22.5292 14.1045H21.6667C21.4362 14.1045 21.25 14.3079 21.25 14.5585V18.3781L19.1667 15.8813V7.68553C19.1667 6.20109 18.0583 4.99355 16.695 4.99355L6.66667 5.0158V2.69153C6.66667 1.7078 7.40125 0.907465 8.30333 0.907465L22.5287 0.939242C22.5292 0.939242 22.5292 0.939242 22.5296 0.939242C23.4325 0.939242 24.1671 1.73957 24.1671 2.7233V12.3209H24.1667Z" fill="white"/>
</svg>
