<svg width="25" height="21" viewBox="0 0 25 21" fill="none" xmlns="http://www.w3.org/2000/svg">
<path d="M22.9167 3.12505H17.7083V2.08335C17.7083 0.934375 16.774 0 15.625 0H9.375C8.22603 0 7.29165 0.934326 7.29165 2.08335V3.125H2.08335C0.934326 3.12505 0 4.05937 0 5.20835V18.75C0 19.899 0.934326 20.8333 2.08335 20.8333H22.9167C24.0657 20.8333 25 19.899 25 18.75V5.20835C25 4.05937 24.0657 3.12505 22.9167 3.12505ZM8.33335 2.08335C8.33335 1.50913 8.80078 1.0417 9.375 1.0417H15.625C16.1992 1.0417 16.6667 1.50913 16.6667 2.08335V3.125H8.33335V2.08335ZM23.9583 18.75C23.9583 19.3243 23.4909 19.7917 22.9167 19.7917H2.08335C1.50913 19.7917 1.0417 19.3243 1.0417 18.75V11.1687C1.34937 11.348 1.7022 11.4584 2.08335 11.4584H10.4167V13.0209C10.4167 13.3088 10.6497 13.5417 10.9375 13.5417H14.0625C14.3504 13.5417 14.5834 13.3088 14.5834 13.0209V11.4584H22.9167C23.2979 11.4584 23.6508 11.3481 23.9584 11.1687V18.75H23.9583ZM11.4584 12.5V10.4167H13.5417V12.5H11.4584ZM23.9583 9.37505C23.9583 9.94927 23.4909 10.4167 22.9167 10.4167H14.5833V9.89585C14.5833 9.60796 14.3504 9.375 14.0625 9.375H10.9375C10.6496 9.375 10.4166 9.60796 10.4166 9.89585V10.4167H2.08335C1.50913 10.4167 1.0417 9.94927 1.0417 9.37505V5.2084C1.0417 4.63418 1.50913 4.16675 2.08335 4.16675H22.9167C23.4909 4.16675 23.9583 4.63418 23.9583 5.2084V9.37505Z" fill="white"/>
</svg>
