<svg width="35" height="35" viewBox="0 0 35 35" fill="none" xmlns="http://www.w3.org/2000/svg">
<path d="M30.0781 4.375C29.1584 4.37608 28.2697 4.70827 27.5748 5.3108C26.8799 5.91333 26.4251 6.74592 26.2938 7.65625H19.6875V8.75H26.25V30.0781C26.25 30.2232 26.3076 30.3623 26.4102 30.4648C26.5127 30.5674 26.6518 30.625 26.7969 30.625C26.9419 30.625 27.081 30.5674 27.1836 30.4648C27.2861 30.3623 27.3438 30.2232 27.3438 30.0781C27.3438 29.3529 27.6318 28.6574 28.1446 28.1446C28.6574 27.6318 29.3529 27.3438 30.0781 27.3438C30.8033 27.3438 31.4988 27.6318 32.0116 28.1446C32.5244 28.6574 32.8125 29.3529 32.8125 30.0781V30.193C32.8111 30.8873 32.5346 31.5527 32.0437 32.0437C31.5527 32.5346 30.8873 32.8111 30.193 32.8125H2.1875V21.5015C3.43063 23.9131 5.31192 25.9372 7.62631 27.3531C9.94069 28.769 12.5994 29.5224 15.3125 29.5312C15.4575 29.5312 15.5966 29.4736 15.6992 29.3711C15.8018 29.2685 15.8594 29.1294 15.8594 28.9844C15.8594 28.8393 15.8018 28.7002 15.6992 28.5977C15.5966 28.4951 15.4575 28.4375 15.3125 28.4375C13.2602 28.4335 11.2355 27.9646 9.39039 27.0659L9.73 25.7994C10.0682 25.7784 10.3909 25.6506 10.6518 25.4343C10.9126 25.2181 11.0981 24.9247 11.1814 24.5963L12.9817 17.8828C13.3905 17.9584 13.8037 18.0079 14.2188 18.031V18.5938C14.2188 18.7388 14.2764 18.8779 14.3789 18.9804C14.4815 19.083 14.6206 19.1406 14.7656 19.1406C14.9107 19.1406 15.0498 19.083 15.1523 18.9804C15.2549 18.8779 15.3125 18.7388 15.3125 18.5938V18.031C15.7275 18.0083 16.1407 17.9591 16.5495 17.8839L18.3493 24.5946C18.4323 24.9233 18.6178 25.217 18.8788 25.4333C19.1398 25.6495 19.4629 25.7772 19.8013 25.7977L20.253 27.4843C20.2839 27.6008 20.3525 27.7038 20.4481 27.7772C20.5436 27.8507 20.6607 27.8906 20.7812 27.8906C20.8291 27.8906 20.8767 27.8843 20.9229 27.872C20.9923 27.8534 21.0573 27.8214 21.1143 27.7776C21.1713 27.7339 21.2191 27.6794 21.255 27.6172C21.2909 27.555 21.3142 27.4863 21.3235 27.4151C21.3329 27.3438 21.3281 27.2715 21.3095 27.2021L20.8584 25.5194C21.1358 25.3275 21.3476 25.055 21.465 24.7387C21.5824 24.4225 21.5997 24.0778 21.5146 23.7513L17.926 10.3595C18.4957 9.52751 18.7132 8.50397 18.5309 7.51227C18.3486 6.52056 17.7814 5.64124 16.9531 5.06625V3.28125C16.9531 2.70109 16.7227 2.14469 16.3124 1.73445C15.9022 1.32422 15.3458 1.09375 14.7656 1.09375C14.1855 1.09375 13.6291 1.32422 13.2188 1.73445C12.8086 2.14469 12.5781 2.70109 12.5781 3.28125V5.06625C11.7498 5.64124 11.1826 6.52056 11.0004 7.51227C10.8181 8.50397 11.0355 9.52751 11.6052 10.3595L8.01336 23.7535C7.92856 24.0799 7.94637 24.4244 8.06438 24.7403C8.18239 25.0562 8.39487 25.328 8.67289 25.5188L8.39945 26.536C5.38839 24.7743 3.16572 21.927 2.1875 18.5784V8.75H9.84375V7.65625H1.09375V33.9062H30.193C31.1777 33.9048 32.1217 33.5128 32.8178 32.8163C33.514 32.1197 33.9054 31.1755 33.9062 30.1908V8.20312C33.9051 7.1882 33.5014 6.21517 32.7837 5.49751C32.0661 4.77985 31.0931 4.37616 30.0781 4.375ZM15.3125 16.9203V16.4062C15.3125 16.2612 15.2549 16.1221 15.1523 16.0196C15.0498 15.917 14.9107 15.8594 14.7656 15.8594C14.6206 15.8594 14.4815 15.917 14.3789 16.0196C14.2764 16.1221 14.2188 16.2612 14.2188 16.4062V16.9203C13.9007 16.9013 13.584 16.8647 13.2699 16.8109L14.554 12.0214C14.6245 12.0252 14.694 12.0323 14.7656 12.0323C14.8373 12.0323 14.9067 12.0252 14.9773 12.0214L16.2613 16.8109C15.9473 16.8647 15.6305 16.9013 15.3125 16.9203ZM20.4602 24.0324C20.4966 24.172 20.4769 24.3202 20.4054 24.4454C20.3338 24.5706 20.2161 24.6628 20.0774 24.7023H20.0741C19.9347 24.7393 19.7863 24.7196 19.6612 24.6477C19.5994 24.6117 19.5453 24.5638 19.5022 24.5067C19.4591 24.4496 19.4278 24.3845 19.4102 24.3152L16.0513 11.8043C16.405 11.6776 16.7379 11.4994 17.0395 11.2755L20.4602 24.0324ZM13.6719 3.28125C13.6719 2.99117 13.7871 2.71297 13.9922 2.50785C14.1973 2.30273 14.4755 2.1875 14.7656 2.1875C15.0557 2.1875 15.3339 2.30273 15.539 2.50785C15.7441 2.71297 15.8594 2.99117 15.8594 3.28125V4.53906C15.1461 4.32395 14.3852 4.32395 13.6719 4.53906V3.28125ZM14.7656 5.46875C15.3064 5.46875 15.8351 5.62912 16.2848 5.92958C16.7344 6.23003 17.0849 6.65708 17.2919 7.15672C17.4988 7.65637 17.553 8.20616 17.4475 8.73658C17.342 9.26699 17.0815 9.75421 16.6991 10.1366C16.3167 10.519 15.8295 10.7795 15.2991 10.885C14.7687 10.9905 14.2189 10.9363 13.7192 10.7294C13.2196 10.5224 12.7925 10.1719 12.4921 9.72226C12.1916 9.2726 12.0312 8.74393 12.0312 8.20312C12.0321 7.47819 12.3205 6.7832 12.8331 6.27059C13.3457 5.75798 14.0407 5.46962 14.7656 5.46875ZM9.07047 24.0346L12.4917 11.2755C12.7933 11.4994 13.1263 11.6776 13.4799 11.8043L10.1243 24.3179C10.0868 24.4563 9.99642 24.5744 9.87265 24.6469C9.74888 24.7193 9.60161 24.7402 9.46258 24.7051H9.45766C9.31803 24.6665 9.19917 24.5746 9.12674 24.4491C9.0543 24.3237 9.03409 24.1748 9.07047 24.0346ZM32.8125 27.4012C32.4564 27.0368 32.0311 26.7472 31.5615 26.5496C31.092 26.3519 30.5876 26.2501 30.0781 26.2501C29.5686 26.2501 29.0643 26.3519 28.5947 26.5496C28.1252 26.7472 27.6998 27.0368 27.3438 27.4012V8.20312C27.3438 7.47792 27.6318 6.78242 28.1446 6.26963C28.6574 5.75683 29.3529 5.46875 30.0781 5.46875C30.8033 5.46875 31.4988 5.75683 32.0116 6.26963C32.5244 6.78242 32.8125 7.47792 32.8125 8.20312V27.4012Z" fill="#003366"/>
<path d="M14.7656 9.84375C15.0901 9.84375 15.4073 9.74753 15.6771 9.56725C15.9469 9.38698 16.1572 9.13075 16.2814 8.83096C16.4055 8.53118 16.438 8.20131 16.3747 7.88306C16.3114 7.56481 16.1552 7.27247 15.9257 7.04303C15.6963 6.81358 15.4039 6.65733 15.0857 6.59402C14.7674 6.53072 14.4376 6.56321 14.1378 6.68739C13.838 6.81156 13.5818 7.02184 13.4015 7.29164C13.2212 7.56144 13.125 7.87864 13.125 8.20312C13.125 8.63825 13.2979 9.05554 13.6055 9.36322C13.9132 9.6709 14.3305 9.84375 14.7656 9.84375ZM14.7656 7.65625C14.8738 7.65625 14.9795 7.68832 15.0695 7.74842C15.1594 7.80851 15.2295 7.89392 15.2709 7.99384C15.3123 8.09377 15.3231 8.20373 15.302 8.30981C15.2809 8.4159 15.2288 8.51334 15.1523 8.58982C15.0758 8.66631 14.9784 8.71839 14.8723 8.73949C14.7662 8.76059 14.6563 8.74976 14.5563 8.70837C14.4564 8.66698 14.371 8.59689 14.3109 8.50695C14.2508 8.41702 14.2187 8.31129 14.2187 8.20312C14.2187 8.05808 14.2764 7.91899 14.3789 7.81643C14.4815 7.71387 14.6206 7.65625 14.7656 7.65625Z" fill="#003366"/>
</svg>
