<svg width="25" height="25" viewBox="0 0 25 25" fill="none" xmlns="http://www.w3.org/2000/svg">
<g clip-path="url(#clip0)">
<path d="M19.8208 3.27546H17.559V2.26365C17.559 1.93629 17.2019 1.78751 16.8746 1.78751H15.1188C14.7022 0.59712 13.6606 0.00192689 12.4702 0.00192689C11.2929 -0.0423324 10.2221 0.679544 9.82158 1.78751H8.09552C7.76816 1.78751 7.4408 1.93629 7.4408 2.26365V3.27546H5.17902C3.83871 3.28976 2.7422 4.34708 2.6792 5.68597V22.7382C2.6792 24.0476 3.86959 24.9999 5.17902 24.9999H19.8208C21.1302 24.9999 22.3206 24.0476 22.3206 22.7382V5.68603C22.2576 4.34708 21.1611 3.28976 19.8208 3.27546ZM8.63113 2.97789H10.2679C10.5536 2.94303 10.7831 2.72567 10.8334 2.44222C11.0096 1.67472 11.683 1.12379 12.4702 1.10305C13.2501 1.12669 13.9133 1.67934 14.0772 2.44222C14.1306 2.73546 14.3752 2.95562 14.6724 2.97789H16.3687V5.35867H8.63113V2.97789ZM21.1302 22.7383C21.1302 23.393 20.4755 23.8096 19.8208 23.8096H5.17902C4.5243 23.8096 3.86959 23.393 3.86959 22.7383V5.68603C3.93031 5.00453 4.49491 4.47838 5.17902 4.4659H7.44075V5.98365C7.47219 6.3171 7.76099 6.56654 8.09546 6.54911H16.8745C17.2152 6.56774 17.513 6.32172 17.559 5.98365V4.46585H19.8207C20.5048 4.47838 21.0694 5.00448 21.1301 5.68597V22.7383H21.1302Z" fill="white"/>
<path d="M10.2083 13.3045C9.98503 13.0691 9.61443 13.0559 9.37497 13.2747L7.47034 15.09L6.66683 14.2567C6.4436 14.0214 6.07301 14.0082 5.83354 14.227C5.60301 14.4685 5.60301 14.8485 5.83354 15.09L7.05366 16.3399C7.15927 16.4582 7.31181 16.5236 7.47028 16.5185C7.62726 16.5163 7.77702 16.4521 7.8869 16.3399L10.2081 14.1377C10.4383 13.9266 10.4537 13.5689 10.2425 13.3389C10.2317 13.3268 10.2202 13.3154 10.2083 13.3045Z" fill="white"/>
<path d="M18.7495 14.5841H11.9048C11.576 14.5841 11.3096 14.8506 11.3096 15.1793C11.3096 15.508 11.576 15.7745 11.9048 15.7745H18.7495C19.0782 15.7745 19.3447 15.508 19.3447 15.1793C19.3447 14.8506 19.0782 14.5841 18.7495 14.5841Z" fill="white"/>
<path d="M10.2083 8.54298C9.98503 8.30767 9.61443 8.2944 9.37497 8.51324L7.47034 10.3286L6.66683 9.49526C6.4436 9.25996 6.07301 9.24668 5.83354 9.46553C5.60301 9.70705 5.60301 10.087 5.83354 10.3286L7.05366 11.5785C7.15927 11.6967 7.31181 11.7621 7.47028 11.757C7.62726 11.7548 7.77702 11.6906 7.8869 11.5785L10.2081 9.37627C10.4383 9.16517 10.4537 8.80745 10.2425 8.57738C10.2317 8.56536 10.2202 8.55392 10.2083 8.54298Z" fill="white"/>
<path d="M18.7495 9.82263H11.9048C11.576 9.82263 11.3096 10.0891 11.3096 10.4178C11.3096 10.7466 11.576 11.013 11.9048 11.013H18.7495C19.0782 11.013 19.3447 10.7466 19.3447 10.4178C19.3447 10.0891 19.0782 9.82263 18.7495 9.82263Z" fill="white"/>
<path d="M10.2083 18.066C9.98503 17.8307 9.61443 17.8175 9.37497 18.0363L7.47034 19.8516L6.66683 19.0183C6.4436 18.783 6.07301 18.7698 5.83354 18.9886C5.60301 19.2301 5.60301 19.6101 5.83354 19.8516L7.05366 21.1015C7.15927 21.2198 7.31181 21.2852 7.47028 21.2801C7.62726 21.2779 7.77702 21.2137 7.8869 21.1015L10.2081 18.8993C10.4383 18.6882 10.4537 18.3305 10.2425 18.1004C10.2317 18.0885 10.2202 18.077 10.2083 18.066Z" fill="white"/>
<path d="M18.7495 19.3457H11.9048C11.576 19.3457 11.3096 19.6122 11.3096 19.9409C11.3096 20.2696 11.576 20.5361 11.9048 20.5361H18.7495C19.0782 20.5361 19.3447 20.2696 19.3447 19.9409C19.3447 19.6122 19.0782 19.3457 18.7495 19.3457Z" fill="white"/>
</g>
<defs>
<clipPath id="clip0">
<rect width="25" height="25" fill="white"/>
</clipPath>
</defs>
</svg>
