<svg width="25" height="25" viewBox="0 0 25 25" fill="none" xmlns="http://www.w3.org/2000/svg">
<g clip-path="url(#clip0)">
<path d="M15.9483 9.0575C15.6249 9.0575 15.3628 9.31959 15.3628 9.64298V20.7085C15.3628 21.0317 15.6249 21.294 15.9483 21.294C16.2717 21.294 16.5338 21.0317 16.5338 20.7085V9.64298C16.5338 9.31959 16.2717 9.0575 15.9483 9.0575Z" fill="white"/>
<path d="M9.04007 9.0575C8.71668 9.0575 8.45459 9.31959 8.45459 9.64298V20.7085C8.45459 21.0317 8.71668 21.294 9.04007 21.294C9.36346 21.294 9.62555 21.0317 9.62555 20.7085V9.64298C9.62555 9.31959 9.36346 9.0575 9.04007 9.0575Z" fill="white"/>
<path d="M4.00465 7.44262V21.8676C4.00465 22.7202 4.31729 23.5209 4.86343 24.0954C5.40705 24.6715 6.1636 24.9985 6.95537 24.9999H18.0328C18.8248 24.9985 19.5813 24.6715 20.1247 24.0954C20.6709 23.5209 20.9835 22.7202 20.9835 21.8676V7.44262C22.0692 7.15445 22.7727 6.10562 22.6274 4.99161C22.482 3.87783 21.5331 3.04467 20.4097 3.04444H17.4121V2.31259C17.4155 1.69716 17.1722 1.10619 16.7365 0.671425C16.3008 0.236891 15.709 -0.0050766 15.0935 -4.51433e-05H9.89465C9.27922 -0.0050766 8.68733 0.236891 8.25166 0.671425C7.81598 1.10619 7.57264 1.69716 7.57607 2.31259V3.04444H4.57847C3.45508 3.04467 2.50619 3.87783 2.36074 4.99161C2.21551 6.10562 2.919 7.15445 4.00465 7.44262ZM18.0328 23.8289H6.95537C5.95434 23.8289 5.17561 22.969 5.17561 21.8676V7.49408H19.8126V21.8676C19.8126 22.969 19.0338 23.8289 18.0328 23.8289ZM8.74703 2.31259C8.74314 2.00773 8.86298 1.71431 9.07933 1.4991C9.29545 1.28389 9.58956 1.16565 9.89465 1.17091H15.0935C15.3986 1.16565 15.6927 1.28389 15.9088 1.4991C16.1252 1.71408 16.245 2.00773 16.2411 2.31259V3.04444H8.74703V2.31259ZM4.57847 4.2154H20.4097C20.9918 4.2154 21.4636 4.68721 21.4636 5.26926C21.4636 5.85131 20.9918 6.32312 20.4097 6.32312H4.57847C3.99642 6.32312 3.5246 5.85131 3.5246 5.26926C3.5246 4.68721 3.99642 4.2154 4.57847 4.2154Z" fill="white"/>
<path d="M12.4942 9.0575C12.1708 9.0575 11.9087 9.31959 11.9087 9.64298V20.7085C11.9087 21.0317 12.1708 21.294 12.4942 21.294C12.8175 21.294 13.0796 21.0317 13.0796 20.7085V9.64298C13.0796 9.31959 12.8175 9.0575 12.4942 9.0575Z" fill="white"/>
</g>
<defs>
<clipPath id="clip0">
<rect width="25" height="25" fill="white"/>
</clipPath>
</defs>
</svg>
