<?xml version="1.0"?>
<svg xmlns="http://www.w3.org/2000/svg" width="512" height="512" viewBox="0 0 128 128"><g><path d="M104.125,60.628h10.613a6.75,6.75,0,1,0,0-3.5H104.125V48.652H112a1.751,1.751,0,0,0,1.423-.731l5.46-7.627a6.742,6.742,0,1,0-2.848-2.033L111.1,45.152h-6.976V38.663a1.75,1.75,0,0,0-1.75-1.75,12.848,12.848,0,0,1-7.536-2.444l9.655-11.9a6.778,6.778,0,1,0-2.715-2.208l-9.489,11.7a12.866,12.866,0,0,1-2.846-8.074,1.751,1.751,0,0,0-1.75-1.75H40.306a1.751,1.751,0,0,0-1.75,1.75,12.866,12.866,0,0,1-2.846,8.074L26.221,20.36a6.759,6.759,0,1,0-2.715,2.208l9.655,11.9a12.848,12.848,0,0,1-7.536,2.444,1.75,1.75,0,0,0-1.75,1.75v6.489H16.9l-4.934-6.891a6.812,6.812,0,1,0-2.848,2.033l5.46,7.627A1.751,1.751,0,0,0,16,48.652h7.875v8.476H13.262a6.75,6.75,0,1,0,0,3.5H23.875v9.865c0,.439.025.874.04,1.311H15.25a1.751,1.751,0,0,0-1.564.965L8.11,83.88a6.791,6.791,0,1,0,3.123,1.58L16.33,75.3H24.2A36.6,36.6,0,0,0,34.531,96.319l-11.346,9.708a6.794,6.794,0,1,0,2.273,2.662l11.687-10c.872.723,1.77,1.421,2.716,2.066l23.153,15.8a1.763,1.763,0,0,0,1.972,0l23.153-15.8c.946-.645,1.844-1.343,2.716-2.066l11.687,10a6.748,6.748,0,1,0,2.273-2.662L93.469,96.319A36.6,36.6,0,0,0,103.8,75.3h7.869l5.1,10.156a6.686,6.686,0,1,0,3.123-1.58l-5.576-11.111a1.751,1.751,0,0,0-1.564-.965h-8.665c.015-.437.04-.872.04-1.311Zm17.125-5a3.25,3.25,0,1,1-3.25,3.25A3.254,3.254,0,0,1,121.25,55.628Zm0-24.9a3.25,3.25,0,1,1-3.25,3.25A3.254,3.254,0,0,1,121.25,30.731ZM3.5,33.981a3.25,3.25,0,1,1,3.25,3.25A3.254,3.254,0,0,1,3.5,33.981ZM6.75,62.128A3.25,3.25,0,1,1,10,58.878,3.254,3.254,0,0,1,6.75,62.128Zm0,31.614A3.25,3.25,0,1,1,10,90.492,3.254,3.254,0,0,1,6.75,93.742Zm117.75-3.25a3.25,3.25,0,1,1-3.25-3.25A3.254,3.254,0,0,1,124.5,90.492ZM107.24,13.158a3.25,3.25,0,1,1-3.25,3.25A3.254,3.254,0,0,1,107.24,13.158Zm-89.73,3.25a3.25,3.25,0,1,1,3.25,3.25A3.254,3.254,0,0,1,17.51,16.408Zm1.863,98.434a3.25,3.25,0,1,1,3.25-3.25A3.254,3.254,0,0,1,19.373,114.842ZM86.166,97.865,64,112.989,41.834,97.865A33.115,33.115,0,0,1,27.375,70.493V40.32A16.623,16.623,0,0,0,41.964,25.731H86.036A16.623,16.623,0,0,0,100.625,40.32V70.493A33.115,33.115,0,0,1,86.166,97.865Zm25.711,13.727a3.25,3.25,0,1,1-3.25-3.25A3.254,3.254,0,0,1,111.877,111.592Z"/><path d="M94.125,46.545a1.751,1.751,0,0,0-1.039-1.6A22.985,22.985,0,0,1,81.41,33.27a1.75,1.75,0,0,0-1.6-1.039H48.189a1.75,1.75,0,0,0-1.6,1.039A22.985,22.985,0,0,1,34.914,44.946a1.751,1.751,0,0,0-1.039,1.6V70.493A26.618,26.618,0,0,0,45.5,92.5l17.516,11.952a1.763,1.763,0,0,0,1.972,0L82.5,92.5a26.618,26.618,0,0,0,11.623-22Zm-3.5,23.948A23.119,23.119,0,0,1,80.529,89.6L64,100.883,47.47,89.6A23.121,23.121,0,0,1,37.375,70.493V47.655A26.468,26.468,0,0,0,49.3,35.731H78.7A26.468,26.468,0,0,0,90.625,47.655Z"/></g></svg>
