<?xml version="1.0" encoding="UTF-8" standalone="no"?>
<!DOCTYPE svg PUBLIC "-//W3C//DTD SVG 1.1//EN" "http://www.w3.org/Graphics/SVG/1.1/DTD/svg11.dtd">
<svg version="1.1" xmlns="http://www.w3.org/2000/svg" xmlns:xlink="http://www.w3.org/1999/xlink" preserveAspectRatio="xMidYMid meet" viewBox="0 0 1000 500" width="1000" height="500"><defs><path d="M697.11 250C697.11 359.29 608.38 448.02 499.09 448.02C389.8 448.02 301.07 359.29 301.07 250C301.07 140.71 389.8 51.98 499.09 51.98C608.38 51.98 697.11 140.71 697.11 250Z" id="bqQAsbcWE"></path><path d="M408.75 250C408.75 326.5 346.64 388.62 270.13 388.62C193.63 388.62 131.52 326.5 131.52 250C131.52 173.5 193.63 111.38 270.13 111.38C346.64 111.38 408.75 173.5 408.75 250Z" id="cpWuCMo8Z"></path><path d="M868.48 250C868.48 326.5 806.37 388.62 729.87 388.62C653.36 388.62 591.25 326.5 591.25 250C591.25 173.5 653.36 111.38 729.87 111.38C806.37 111.38 868.48 173.5 868.48 250Z" id="e4MpbpdLV5"></path><path d="M230.53 250C230.53 304.65 186.16 349.01 131.52 349.01C76.87 349.01 32.5 304.65 32.5 250C32.5 195.35 76.87 150.99 131.52 150.99C186.16 150.99 230.53 195.35 230.53 250Z" id="am0L30fVL"></path><path d="M967.5 250C967.5 304.65 923.13 349.01 868.48 349.01C813.84 349.01 769.47 304.65 769.47 250C769.47 195.35 813.84 150.99 868.48 150.99C923.13 150.99 967.5 195.35 967.5 250Z" id="eHypNpOaw"></path></defs><g><g><g><g><use xlink:href="#bqQAsbcWE" opacity="1" fill-opacity="0" stroke="#003366" stroke-width="5" stroke-opacity="1"></use></g></g><g><g><use xlink:href="#cpWuCMo8Z" opacity="1" fill-opacity="0" stroke="#003366" stroke-width="5" stroke-opacity="1"></use></g></g><g><g><use xlink:href="#e4MpbpdLV5" opacity="1" fill-opacity="0" stroke="#003366" stroke-width="5" stroke-opacity="1"></use></g></g><g><g><use xlink:href="#am0L30fVL" opacity="1" fill-opacity="0" stroke="#003366" stroke-width="5" stroke-opacity="1"></use></g></g><g><g><use xlink:href="#eHypNpOaw" opacity="1" fill-opacity="0" stroke="#003366" stroke-width="5" stroke-opacity="1"></use></g></g></g></g></svg>